<svg width="110" height="281" viewBox="0 0 110 281" fill="none" xmlns="http://www.w3.org/2000/svg">
<g clip-path="url(#clip0_385_943)">
<mask id="mask0_385_943" style="mask-type:alpha" maskUnits="userSpaceOnUse" x="-233" y="0" width="344" height="566">
<path d="M110.5 35C110.5 15.67 94.83 0 75.5 0H-197.5C-216.83 0 -232.5 15.67 -232.5 35V531C-232.5 550.33 -216.83 566 -197.5 566H75.5C94.83 566 110.5 550.33 110.5 531V35Z" fill="url(#paint0_linear_385_943)" fill-opacity="0.1"/>
</mask>
<g mask="url(#mask0_385_943)">
<path fill-rule="evenodd" clip-rule="evenodd" d="M77.4308 93.07V115.165C77.4308 127.369 67.539 137.26 55.3356 137.26C43.1322 137.26 33.2404 127.369 33.2404 115.165C33.2404 102.962 43.1322 93.07 55.3356 93.07H77.4308ZM110.5 115.165C110.5 145.634 85.8008 170.329 55.3356 170.329C24.8672 170.329 0.171387 145.63 0.171387 115.165C0.171387 84.7 24.8672 60.001 55.3356 60.001H110.5V115.165Z" fill="white"/>
<path fill-rule="evenodd" clip-rule="evenodd" d="M77.4308 247.589V225.494C77.4308 213.29 67.539 203.398 55.3356 203.398C43.1322 203.398 33.2404 213.29 33.2404 225.494C33.2404 237.697 43.1322 247.589 55.3356 247.589H77.4308ZM110.5 225.494C110.5 195.025 85.8008 170.329 55.3356 170.329C24.8672 170.329 0.171387 195.028 0.171387 225.494C0.171387 255.959 24.8672 280.658 55.3356 280.658H110.5V225.494Z" fill="white"/>
<path fill-rule="evenodd" clip-rule="evenodd" d="M38.4049 -17.2589V4.83635C38.4049 17.0398 48.2967 26.9316 60.5002 26.9316C72.7036 26.9316 82.5954 17.0398 82.5954 4.83635C82.5954 -7.36707 72.7036 -17.2589 60.5002 -17.2589H38.4049ZM5.33594 4.83635C5.33594 35.3048 30.0349 60.0005 60.5002 60.0005C90.9654 60.0005 115.664 35.3015 115.664 4.83635C115.668 -25.6289 90.9686 -50.3279 60.5002 -50.3279H5.33594V4.83635Z" fill="white"/>
</g>
</g>
<defs>
<linearGradient id="paint0_linear_385_943" x1="-61" y1="0" x2="-61" y2="566" gradientUnits="userSpaceOnUse">
<stop stop-color="white"/>
<stop offset="1" stop-color="white" stop-opacity="0.5"/>
</linearGradient>
<clipPath id="clip0_385_943">
<rect width="111" height="281" fill="white"/>
</clipPath>
</defs>
</svg>
