<svg width="74" height="43" viewBox="0 0 74 43" fill="none" xmlns="http://www.w3.org/2000/svg">
<path d="M37.6903 23.8535C38.9694 23.6439 39.8381 22.4265 39.6305 21.1345C39.4229 19.8425 38.2177 18.9651 36.9385 19.1748C35.6594 19.3845 34.7907 20.6018 34.9983 21.8938C35.2059 23.1858 36.4112 24.0632 37.6903 23.8535Z" fill="#6BE870"/>
<path d="M14.1493 23.8538C15.4285 23.6441 16.2971 22.4267 16.0895 21.1347C15.8819 19.8427 14.6767 18.9653 13.3976 19.175C12.1184 19.3847 11.2498 20.6021 11.4574 21.8941C11.665 23.1861 12.8702 24.0635 14.1493 23.8538Z" fill="#6BE870"/>
<path d="M72.9169 10.8757C72.6308 9.44404 71.3355 5.52225 69.3331 3.17828C65.0132 -1.8668 56.9295 0.418745 54.2714 1.17193L53.9436 1.26284C43.79 4.06782 33.511 3.91848 23.3864 1.6719C23.1389 1.61671 22.856 1.55178 22.5378 1.47711C19.719 0.824558 14.4735 -0.392882 10.1086 0.223954C6.81408 0.688205 3.86025 2.91856 2.21781 6.18779C1.59747 7.41821 1.2857 8.71682 1.06392 9.82712C-0.321392 16.7584 -0.356748 25.0078 0.967494 32.4553C1.55247 35.731 3.08242 38.6171 5.27771 40.5813C7.32192 42.4123 10.0315 42.9999 12.7603 42.9999C15.997 42.9999 19.2626 42.1753 21.49 41.6137C22.0171 41.4806 22.4768 41.3669 22.8335 41.2858C31.92 39.2892 41.0483 39.3379 49.9676 41.1332C50.4401 41.2306 51.0637 41.3864 51.7804 41.5715C56.1742 42.6948 64.3543 44.7855 69.423 39.9709C71.3323 38.1529 72.6179 35.52 73.039 32.5494C73.82 26.9882 74.8004 20.3491 72.9169 10.8757ZM13.7728 26.3129C11.15 26.3129 9.02222 24.1637 9.02222 21.5145C9.02222 18.8654 11.15 16.7162 13.7728 16.7162C16.3955 16.7162 18.5233 18.8654 18.5233 21.5145C18.5233 24.1637 16.3955 26.3129 13.7728 26.3129ZM30.1458 26.183H27.7191V21.5178L26.7163 23.2709C26.697 23.3034 26.6745 23.3293 26.652 23.3586C26.427 23.7254 26.0252 23.9722 25.5656 23.9722C25.106 23.9722 24.7042 23.7254 24.4792 23.3586C24.4567 23.3293 24.4342 23.3034 24.4149 23.2709L23.4121 21.5178V26.183H20.9854V17.9791C20.9886 17.9401 20.9886 17.9077 20.995 17.8752C21.1043 17.135 21.7439 16.5701 22.5089 16.5701C23.1068 16.5701 23.621 16.9207 23.8717 17.4272C23.8846 17.4467 23.8974 17.4662 23.9103 17.4889L25.5656 20.388L27.2209 17.4889C27.2338 17.4662 27.2466 17.4467 27.2595 17.4272C27.507 16.9207 28.0244 16.5701 28.6223 16.5701C29.3873 16.5701 30.0269 17.135 30.1362 17.8752C30.1394 17.9044 30.1458 17.9499 30.1458 17.9791V26.183ZM37.3134 26.3129C34.6906 26.3129 32.5629 24.1637 32.5629 21.5145C32.5629 18.8654 34.6906 16.7162 37.3134 16.7162C39.9362 16.7162 42.064 18.8654 42.064 21.5145C42.064 24.1637 39.9362 26.3129 37.3134 26.3129ZM53.4004 26.183H50.9737V21.5178L49.9708 23.2709C49.9516 23.3034 49.9291 23.3293 49.9066 23.3586C49.6816 23.7254 49.2798 23.9722 48.8202 23.9722C48.3605 23.9722 47.9588 23.7254 47.7338 23.3586C47.7113 23.3293 47.6888 23.3034 47.6695 23.2709L46.6667 21.5178V26.183H44.24V17.9791C44.2432 17.9401 44.2432 17.9077 44.2496 17.8752C44.3589 17.135 44.9985 16.5701 45.7635 16.5701C46.3613 16.5701 46.8788 16.9207 47.1263 17.4272C47.1392 17.4467 47.152 17.4662 47.1649 17.4889L48.8202 20.388L50.4755 17.4889C50.4883 17.4662 50.5012 17.4467 50.514 17.4272C50.7615 16.9207 51.279 16.5701 51.8769 16.5701C52.6418 16.5701 53.2814 17.135 53.3907 17.8752C53.3939 17.9044 53.4004 17.9499 53.4004 17.9791V26.183ZM60.2305 26.3129C57.6077 26.3129 55.4799 24.1637 55.4799 21.5145C55.4799 18.8654 57.6077 16.7162 60.2305 16.7162C62.8533 16.7162 64.9811 18.8654 64.9811 21.5145C64.9811 24.1637 62.8533 26.3129 60.2305 26.3129Z" fill="#6BE870"/>
<path d="M60.2305 23.8844C61.5264 23.8844 62.5769 22.8234 62.5769 21.5145C62.5769 20.2056 61.5264 19.1445 60.2305 19.1445C58.9347 19.1445 57.8842 20.2056 57.8842 21.5145C57.8842 22.8234 58.9347 23.8844 60.2305 23.8844Z" fill="#6BE870"/>
</svg>
