<svg width="49" height="76" viewBox="0 0 49 76" fill="none" xmlns="http://www.w3.org/2000/svg">
<path fill-rule="evenodd" clip-rule="evenodd" d="M5.5105 3.96826H43.9688C44.7972 3.96826 45.4688 4.63983 45.4688 5.46826V8.58765H4.0105V5.46826C4.0105 4.63983 4.68207 3.96826 5.5105 3.96826ZM4.0105 12.0876V70.5318C4.0105 71.3602 4.68207 72.0318 5.5105 72.0318H43.9688C44.7972 72.0318 45.4688 71.3602 45.4688 70.5318V12.0876H4.0105ZM0.510498 5.46826C0.510498 2.70684 2.74907 0.468262 5.5105 0.468262H43.9688C46.7302 0.468262 48.9688 2.70684 48.9688 5.46826V70.5318C48.9688 73.2932 46.7302 75.5318 43.9688 75.5318H5.5105C2.74907 75.5318 0.510498 73.2932 0.510498 70.5318V5.46826ZM19.0672 24.7134H12.115C11.8388 24.7134 11.615 24.9373 11.615 25.2134V32.1656C11.615 32.4418 11.8388 32.6656 12.115 32.6656H19.0672C19.3433 32.6656 19.5672 32.4418 19.5672 32.1656V25.2134C19.5672 24.9373 19.3433 24.7134 19.0672 24.7134ZM12.115 21.2134C9.90585 21.2134 8.11499 23.0043 8.11499 25.2134V32.1656C8.11499 34.3748 9.90585 36.1656 12.115 36.1656H19.0672C21.2763 36.1656 23.0672 34.3748 23.0672 32.1656V25.2134C23.0672 23.0043 21.2763 21.2134 19.0672 21.2134H12.115ZM12.115 42.9934H19.0672C19.3433 42.9934 19.5672 43.2173 19.5672 43.4934V50.4456C19.5672 50.7218 19.3433 50.9456 19.0672 50.9456H12.115C11.8388 50.9456 11.615 50.7218 11.615 50.4456V43.4934C11.615 43.2173 11.8388 42.9934 12.115 42.9934ZM8.11499 43.4934C8.11499 41.2843 9.90585 39.4934 12.115 39.4934H19.0672C21.2763 39.4934 23.0672 41.2843 23.0672 43.4934V50.4456C23.0672 52.6548 21.2763 54.4456 19.0672 54.4456H12.115C9.90585 54.4456 8.11499 52.6548 8.11499 50.4456V43.4934ZM37.3641 24.7134H30.4119C30.1357 24.7134 29.9119 24.9373 29.9119 25.2134V32.1656C29.9119 32.4418 30.1357 32.6656 30.4119 32.6656H37.3641C37.6402 32.6656 37.8641 32.4418 37.8641 32.1656V25.2134C37.8641 24.9373 37.6402 24.7134 37.3641 24.7134ZM30.4119 21.2134C28.2027 21.2134 26.4119 23.0043 26.4119 25.2134V32.1656C26.4119 34.3748 28.2027 36.1656 30.4119 36.1656H37.3641C39.5732 36.1656 41.3641 34.3748 41.3641 32.1656V25.2134C41.3641 23.0043 39.5732 21.2134 37.3641 21.2134H30.4119ZM35.6379 40.6789C35.6379 39.7124 34.8544 38.9289 33.8879 38.9289C32.9214 38.9289 32.1379 39.7124 32.1379 40.6789V45.2645H27.5521C26.5856 45.2645 25.8021 46.048 25.8021 47.0145C25.8021 47.981 26.5856 48.7645 27.5521 48.7645H32.1379V53.3502C32.1379 54.3167 32.9214 55.1002 33.8879 55.1002C34.8544 55.1002 35.6379 54.3167 35.6379 53.3502V48.7645H40.2234C41.1899 48.7645 41.9734 47.981 41.9734 47.0145C41.9734 46.048 41.1899 45.2645 40.2234 45.2645H35.6379V40.6789ZM31.0754 70.4395C32.0419 70.4395 32.8254 69.656 32.8254 68.6895C32.8254 67.723 32.0419 66.9395 31.0754 66.9395H18.4042C17.4377 66.9395 16.6542 67.723 16.6542 68.6895C16.6542 69.656 17.4377 70.4395 18.4042 70.4395H31.0754Z" fill="#86EC8A"/>
</svg>
