<svg width="57" height="97" viewBox="0 0 57 97" fill="none" xmlns="http://www.w3.org/2000/svg">
<path fill-rule="evenodd" clip-rule="evenodd" d="M7.5 4H49.3203C51.2533 4 52.8204 5.56701 52.8204 7.5V65.514C52.8204 66.9238 51.9868 68.1389 50.7857 68.6934C50.8706 68.1065 50.9145 67.5064 50.9145 66.896C50.9145 64.2293 50.0758 61.7586 48.6477 59.7331V10.8491C48.6477 9.19227 47.3046 7.84912 45.6477 7.84912H11.1729C9.516 7.84912 8.17285 9.19227 8.17285 10.8491V62.1651C8.17285 63.8219 9.516 65.1651 11.1729 65.1651H26.1448C26.0661 65.7308 26.0254 66.3086 26.0254 66.896C26.0254 67.618 26.0869 68.3257 26.2049 69.014H7.50001C5.56701 69.014 4 67.447 4 65.514V7.50001C4 5.56701 5.56701 4 7.5 4ZM50.001 72.4813C53.5476 72.1391 56.3204 69.1504 56.3204 65.514V7.5C56.3204 3.63401 53.1863 0.5 49.3203 0.5H7.5C3.63401 0.5 0.5 3.63402 0.5 7.50001V65.514C0.5 69.38 3.63401 72.514 7.50001 72.514H26.939V96.3997L38.47 91.6841L50.001 96.3997V72.4813ZM30.439 76.4027V91.187L38.47 87.9027L46.501 91.187V76.4026C44.3335 78.2355 41.5308 79.3406 38.47 79.3406C35.4091 79.3406 32.6064 78.2355 30.439 76.4027ZM45.1477 11.3491V56.3929C43.2183 55.1636 40.9273 54.4514 38.47 54.4514C33.4654 54.4514 29.1508 57.4055 27.1749 61.6651H11.6729V11.3491H45.1477ZM16.9272 18.5513C15.9607 18.5513 15.1772 19.3348 15.1772 20.3013C15.1772 21.2678 15.9607 22.0513 16.9272 22.0513H39.8931C40.8596 22.0513 41.6431 21.2678 41.6431 20.3013C41.6431 19.3348 40.8596 18.5513 39.8931 18.5513H16.9272ZM15.1772 33.262C15.1772 32.2955 15.9607 31.512 16.9272 31.512H39.8931C40.8596 31.512 41.6431 32.2955 41.6431 33.262C41.6431 34.2285 40.8596 35.012 39.8931 35.012H16.9272C15.9607 35.012 15.1772 34.2285 15.1772 33.262ZM16.9272 44.4727C15.9607 44.4727 15.1772 45.2562 15.1772 46.2227C15.1772 47.1892 15.9607 47.9727 16.9272 47.9727H39.8931C40.8596 47.9727 41.6431 47.1892 41.6431 46.2227C41.6431 45.2562 40.8596 44.4727 39.8931 44.4727H16.9272ZM38.47 75.8406C43.4099 75.8406 47.4145 71.8359 47.4145 66.896C47.4145 61.956 43.4099 57.9514 38.47 57.9514C33.53 57.9514 29.5254 61.956 29.5254 66.896C29.5254 71.8359 33.53 75.8406 38.47 75.8406Z" fill="#86EC8A"/>
</svg>
