<svg width="88" height="76" viewBox="0 0 88 76" fill="none" xmlns="http://www.w3.org/2000/svg">
<path d="M49.9807 34.8464C49.9807 36.1212 49.6214 37.2916 48.903 38.3578C48.1845 39.4239 47.1531 40.212 45.8088 40.7219V44.3375H42.958V41.2781C42.6567 41.3013 42.1584 41.3129 41.463 41.3129H40.6287V44.268H37.7778V41.2086C37.4997 41.2086 37.3027 41.197 37.1868 41.1738L35.1356 40.9652V18.715H37.7778V15.0994H40.6287V18.715H42.0193C42.4365 18.715 42.7494 18.7266 42.958 18.7498V15.0646H45.8088V19.5494C46.7822 20.0825 47.5471 20.801 48.1033 21.7049C48.6828 22.6088 48.9725 23.617 48.9725 24.7295C48.9725 25.6798 48.7523 26.5026 48.3119 27.1979C47.8716 27.8932 47.1878 28.4843 46.2607 28.971C46.1217 29.0405 45.9015 29.11 45.6002 29.1796C45.9247 29.1796 46.3419 29.3186 46.8518 29.5968C48.9377 30.6861 49.9807 32.436 49.9807 34.8464ZM37.9517 21.3225V28.1018H41.9845C43.2361 28.1018 44.2443 27.8005 45.0092 27.1979C45.7972 26.5953 46.1912 25.7262 46.1912 24.5905C46.1912 23.617 45.8667 22.8522 45.2178 22.2959C44.592 21.7397 43.6765 21.4152 42.4713 21.3225H37.9517ZM41.8107 38.7402C43.5026 38.7402 44.8237 38.4157 45.774 37.7668C46.7243 37.0946 47.1994 36.1212 47.1994 34.8464C47.1994 33.618 46.7591 32.6214 45.8783 31.8566C45.0208 31.0917 43.8039 30.7093 42.2279 30.7093H37.9517V38.6011L39.6204 38.7054C40.1535 38.7286 40.8836 38.7402 41.8107 38.7402Z" fill="#86EC8A"/>
<path d="M21.6702 59.3299H36.9947C40.9106 59.3299 44.0851 56.1554 44.0851 52.2395V52.2395C44.0851 48.3235 40.9106 45.149 36.9947 45.149H24.4149L22.945 43.6792C20.3714 41.1055 16.8808 39.6597 13.2411 39.6597H2.91489C2.40961 39.6597 2 40.0693 2 40.5746V61.8803C2 62.2703 2.24732 62.6175 2.61599 62.7449L32.0833 72.9312C36.4945 74.456 41.3616 73.9167 45.334 71.4664C58.0799 63.6044 67.3578 57.8816 79.7614 50.2308C82.1156 48.7787 81.0877 45.149 78.3217 45.149C74.4524 45.149 70.8873 45.149 66.7697 45.149C62.7063 45.149 58.7209 46.2766 55.2602 48.4062L42.7128 56.1278" stroke="#80EB84" stroke-width="3.5"/>
</svg>
