<svg width="53" height="91" viewBox="0 0 53 91" fill="none" xmlns="http://www.w3.org/2000/svg">
<circle cx="26.5" cy="58.5" r="24.75" stroke="#86EC8A" stroke-width="3.5"/>
<path d="M17.5 34.5V24C17.5 23.4477 17.0523 23 16.5 23H8.41421C7.52331 23 7.07714 21.9229 7.70711 21.2929L26 3L44.2929 21.2929C44.9229 21.9229 44.4767 23 43.5858 23H36C35.4477 23 35 23.4477 35 24V34.5" stroke="#80EB84" stroke-width="3.5"/>
<path d="M26.381 48.934C25.3677 48.9213 24.4177 49.086 23.531 49.428C22.657 49.7573 21.9413 50.2133 21.384 50.796C20.8267 51.3787 20.548 52.0563 20.548 52.829C20.548 53.779 20.8077 54.501 21.327 54.995C21.8463 55.489 22.543 55.8563 23.417 56.097C24.3037 56.325 25.2917 56.534 26.381 56.724C28.129 57.0027 29.744 57.465 31.226 58.111C32.7207 58.757 33.9177 59.6183 34.817 60.695C35.729 61.759 36.185 63.07 36.185 64.628C36.185 66.0593 35.805 67.3323 35.045 68.447C34.285 69.549 33.2653 70.442 31.986 71.126C30.7193 71.7973 29.3197 72.2217 27.787 72.399V76.256H24.994V72.399C23.7147 72.2723 22.4987 71.9683 21.346 71.487C20.206 71.0057 19.2117 70.366 18.363 69.568C17.5143 68.77 16.9 67.8453 16.52 66.794L20.225 65.407C20.4403 66.015 20.852 66.5597 21.46 67.041C22.0807 67.5097 22.8153 67.877 23.664 68.143C24.5253 68.409 25.431 68.542 26.381 68.542C27.3943 68.542 28.3443 68.3773 29.231 68.048C30.1303 67.7187 30.8523 67.2627 31.397 66.68C31.9543 66.0973 32.233 65.4133 32.233 64.628C32.233 63.8173 31.9417 63.1523 31.359 62.633C30.789 62.1137 30.0543 61.702 29.155 61.398C28.2683 61.094 27.3437 60.866 26.381 60.714C24.519 60.41 22.847 59.9667 21.365 59.384C19.8957 58.8013 18.7303 57.9843 17.869 56.933C17.0203 55.8817 16.596 54.5137 16.596 52.829C16.596 51.3977 16.976 50.1247 17.736 49.01C18.496 47.8953 19.5093 47.0023 20.776 46.331C22.0553 45.647 23.4613 45.2227 24.994 45.058V41.144H27.787V45.058C29.0283 45.1847 30.219 45.4887 31.359 45.97C32.5117 46.4513 33.5187 47.091 34.38 47.889C35.2413 48.6743 35.8683 49.6117 36.261 50.701L32.518 52.05C32.3027 51.4293 31.891 50.891 31.283 50.435C30.675 49.9663 29.9403 49.599 29.079 49.333C28.2303 49.067 27.331 48.934 26.381 48.934Z" fill="#86EC8A"/>
</svg>
