<svg width="53" height="81" viewBox="0 0 53 81" fill="none" xmlns="http://www.w3.org/2000/svg">
<path d="M23.5489 2.92705C23.8483 2.00574 25.1517 2.00574 25.4511 2.92705L29.3271 14.8561C29.4609 15.2682 29.8449 15.5471 30.2781 15.5471H42.8211C43.7898 15.5471 44.1926 16.7867 43.4089 17.3561L33.2614 24.7287C32.9109 24.9834 32.7642 25.4347 32.8981 25.8467L36.7741 37.7758C37.0735 38.6971 36.019 39.4633 35.2353 38.8939L25.0878 31.5213C24.7373 31.2666 24.2627 31.2666 23.9122 31.5213L13.7647 38.8939C12.981 39.4633 11.9265 38.6971 12.2259 37.7758L16.1019 25.8467C16.2358 25.4347 16.0891 24.9834 15.7386 24.7287L5.59113 17.3561C4.80741 16.7867 5.21019 15.5471 6.17891 15.5471H18.7219C19.1551 15.5471 19.5391 15.2682 19.6729 14.8561L23.5489 2.92705Z" stroke="#86EC8A" stroke-width="3.5"/>
<path d="M9 71V50.0087C9 49.6891 9.1528 49.3887 9.41114 49.2005L29.5 34.5643M44 71V25.9658C44 25.1482 43.072 24.6761 42.4111 25.1576L35 30.5571" stroke="#80EB84" stroke-width="3.5"/>
<mask id="path-3-inside-1_101_31" fill="white">
<rect y="70" width="53" height="11" rx="1"/>
</mask>
<rect y="70" width="53" height="11" rx="1" stroke="#86EC8A" stroke-width="7" mask="url(#path-3-inside-1_101_31)"/>
</svg>
