<svg width="51" height="87" viewBox="0 0 51 87" fill="none" xmlns="http://www.w3.org/2000/svg">
<path d="M13.75 29.0898H4C2.89543 29.0898 2 29.9853 2 31.0898V83.0898C2 84.1944 2.89543 85.0898 4 85.0898H47C48.1046 85.0898 49 84.1944 49 83.0898V31.0898C49 29.9853 48.1046 29.0898 47 29.0898H37.25" stroke="#86EC8A" stroke-width="3.5"/>
<path d="M2 44.0898H49.5" stroke="#80EB84" stroke-width="3.5"/>
<path d="M31 56.0898L21 73.0898" stroke="#80EB84" stroke-width="3.5"/>
<path d="M35.5 58.5898L40.7929 63.8827C41.1834 64.2733 41.1834 64.9064 40.7929 65.297L35.5 70.5898" stroke="#80EB84" stroke-width="3.5"/>
<path d="M16 58.5898L10.7071 63.8827C10.3166 64.2733 10.3166 64.9064 10.7071 65.297L16 70.5898" stroke="#80EB84" stroke-width="3.5"/>
<path fill-rule="evenodd" clip-rule="evenodd" d="M31.208 3.52206C28.8205 -1.17402 22.1121 -1.17402 19.7245 3.52206C19.1241 4.70315 17.808 5.33693 16.5102 5.07C11.3501 4.00869 7.1674 9.25357 9.35035 14.0482C9.89937 15.254 9.57433 16.6781 8.55647 17.5264C4.50941 20.899 6.00218 27.4393 11.1118 28.722C12.3969 29.0446 13.3076 30.1866 13.3362 31.5113C13.4497 36.7782 19.4938 39.6889 23.6825 36.4938C24.7359 35.6902 26.1966 35.6902 27.2501 36.4938C31.4387 39.6889 37.4829 36.7782 37.5964 31.5113C37.6249 30.1866 38.5357 29.0446 39.8208 28.722C44.9304 27.4393 46.4232 20.899 42.3761 17.5264C41.3583 16.6781 41.0332 15.254 41.5822 14.0482C43.7652 9.25357 39.5825 4.00869 34.4224 5.07C33.1246 5.33693 31.8085 4.70315 31.208 3.52206ZM22.8445 5.10825C23.9347 2.96392 26.9979 2.96392 28.0881 5.10825C29.4031 7.69483 32.2853 9.08281 35.1275 8.49824C37.4837 8.01362 39.3936 10.4086 38.3969 12.5979C37.1945 15.2387 37.9063 18.3575 40.1354 20.2151C41.9834 21.7551 41.3018 24.7416 38.9686 25.3273C36.1543 26.0338 34.1597 28.5348 34.0972 31.4358C34.0454 33.8408 31.2855 35.1699 29.3729 33.711C27.0658 31.9511 23.8668 31.9511 21.5597 33.711C19.6471 35.1699 16.8872 33.8408 16.8354 31.4358C16.7728 28.5348 14.7783 26.0338 11.964 25.3273C9.6308 24.7416 8.94916 21.7551 10.7971 20.2151C13.0262 18.3575 13.7381 15.2387 12.5357 12.5979C11.5389 10.4086 13.4488 8.01362 15.8051 8.49824C18.6473 9.08281 21.5294 7.69483 22.8445 5.10825ZM31.4089 19.5562C31.4089 22.8382 28.7483 25.4987 25.4663 25.4987C22.1843 25.4987 19.5237 22.8382 19.5237 19.5562C19.5237 16.2742 22.1843 13.6136 25.4663 13.6136C28.7483 13.6136 31.4089 16.2742 31.4089 19.5562ZM34.9089 19.5562C34.9089 24.7712 30.6813 28.9987 25.4663 28.9987C20.2513 28.9987 16.0237 24.7712 16.0237 19.5562C16.0237 14.3412 20.2513 10.1136 25.4663 10.1136C30.6813 10.1136 34.9089 14.3412 34.9089 19.5562Z" fill="#86EC8A"/>
</svg>
