<svg width="22" height="9" viewBox="0 0 22 9" fill="none" xmlns="http://www.w3.org/2000/svg">
<path d="M1 4L0.5 4L0.5 5L1 5L1 4ZM21.3536 4.85356C21.5488 4.65829 21.5488 4.34171 21.3536 4.14645L18.1716 0.964468C17.9763 0.769205 17.6597 0.769205 17.4645 0.964468C17.2692 1.15973 17.2692 1.47631 17.4645 1.67157L20.2929 4.5L17.4645 7.32843C17.2692 7.52369 17.2692 7.84027 17.4645 8.03554C17.6597 8.2308 17.9763 8.2308 18.1716 8.03554L21.3536 4.85356ZM1 5L21 5L21 4L1 4L1 5Z" fill="currentColor"/>
</svg>
