<svg width="22" height="22" viewBox="0 0 22 22" fill="none" xmlns="http://www.w3.org/2000/svg">
<g clip-path="url(#clip0_192_1053)">
<path d="M20.2446 4.1889L22 2.55716L22 2.2L15.9188 2.2L11.5848 12.6816L6.65408 2.2L0.27775 2.2L0.27775 2.55716L2.32833 4.95579C2.52817 5.13303 2.63267 5.39222 2.60608 5.65319L2.60608 15.0793C2.66933 15.4187 2.55567 15.7678 2.31 16.0146L2.25864e-08 18.7347L2.30682e-08 19.0874L6.54958 19.0874L6.54958 18.7303L4.23958 16.0146C3.98933 15.767 3.87108 15.424 3.9215 15.0793L3.9215 6.92599L9.67083 19.0919L10.3391 19.0919L15.2827 6.92599L15.2827 16.6176C15.2827 16.8732 15.2827 16.9257 15.1103 17.0932L13.332 18.765L13.332 19.1231L21.9597 19.1231L21.9597 18.7659L20.2455 17.1351C20.0952 17.0246 20.0173 16.8393 20.0493 16.6594L20.0493 4.66453C20.0173 4.48372 20.0942 4.29846 20.2446 4.1889Z" fill="currentColor"/>
</g>
<defs>
<clipPath id="clip0_192_1053">
<rect width="22" height="22" fill="white"/>
</clipPath>
</defs>
</svg>
