<svg width="51" height="32" viewBox="0 0 51 32" fill="none" xmlns="http://www.w3.org/2000/svg">
<path d="M10.4568 32C8.25299 32 5.95363 31.505 4.12443 29.8649C2.33931 28.2691 1.10516 25.9641 0.642347 23.371C-0.239194 18.4433 -0.209809 12.9837 0.708463 8.37367C0.870079 7.5684 1.11985 6.51194 1.64877 5.47025C3.04455 2.69981 5.58632 0.808521 8.44399 0.402189C11.6175 -0.0484692 15.1731 0.778969 17.0831 1.22224L17.5826 1.34045C23.4669 2.64809 29.4467 2.47817 35.353 0.84546L35.5367 0.793745C40.9949 -0.735539 45.0132 -0.0558569 47.4889 2.84018C49.0169 4.62065 50.0087 7.42803 50.2731 8.77262C51.5293 15.0744 50.8828 19.6106 50.3686 23.2602C50.0307 25.6686 48.9581 27.8333 47.3567 29.3478C43.2061 33.2929 37.0206 31.7119 34.0528 30.9583C33.6634 30.8549 33.3255 30.7662 33.0537 30.7145C27.8599 29.6728 22.534 29.7245 17.23 30.8918C17.0243 30.9361 16.7672 31.0026 16.4734 31.0765C15.0409 31.4385 12.8003 32 10.4568 32ZM10.4275 7.05864C10.0675 7.05864 9.71488 7.0808 9.3843 7.12513C8.7011 7.22117 8.05464 7.75309 7.65795 8.54359C7.49633 8.86127 7.38614 9.37103 7.31268 9.72565C6.56337 13.4713 6.54867 18.133 7.2686 22.1889C7.4596 23.275 7.94445 24.2354 8.59826 24.819C9.70753 25.809 13.5643 24.8338 14.8352 24.5161C15.2098 24.4201 15.533 24.3388 15.7975 24.2797C22.0124 22.9203 28.264 22.8465 34.376 24.0802C34.736 24.1541 35.1914 24.2649 35.713 24.3979C37.6597 24.8929 41.274 25.8164 42.7359 24.4275C43.2281 23.962 43.5734 23.1937 43.6983 22.3071C44.1684 19.0122 44.6974 15.2739 43.6689 10.1024C43.5514 9.50401 42.9269 7.89346 42.3833 7.25811C42.1042 6.93304 41.0537 6.28291 37.3659 7.33199L37.1382 7.39109C30.1666 9.31932 23.0996 9.5114 16.1354 7.96734L15.5771 7.83436C14.343 7.54624 12.2199 7.05864 10.4275 7.05864Z" fill="#6BE870"/>
</svg>
