<svg width="193" height="257" viewBox="0 0 193 257" fill="none" xmlns="http://www.w3.org/2000/svg">
<path fill-rule="evenodd" clip-rule="evenodd" d="M169.211 83.6212C169.211 123.852 136.658 156.466 96.5009 156.466C56.3441 156.466 23.7906 123.852 23.7906 83.6212C23.7906 43.3899 56.3441 10.776 96.5009 10.776C136.658 10.776 169.211 43.3899 169.211 83.6212ZM105.636 166.747L128.48 239.645L146.166 227.082L137.088 198.157C136.198 195.322 137.774 192.301 140.607 191.409C143.441 190.516 146.459 192.09 147.348 194.924L156.482 224.027H178.349L153.495 144.713C140.667 156.73 124.051 164.739 105.636 166.747ZM161.906 135.577C173.213 121.309 179.967 103.255 179.967 83.6212C179.967 37.4384 142.598 -6.10352e-05 96.5009 -6.10352e-05C50.4037 -6.10352e-05 13.0345 37.4384 13.0345 83.6212C13.0345 103.255 19.7882 121.307 31.095 135.576L0 234.803H39.1075L70.3554 257L96.5 173.57L122.645 257L153.892 234.803L193 234.803L161.906 135.577ZM39.5057 144.712C52.3337 156.729 68.9496 164.739 87.3643 166.747L64.5202 239.645L46.7356 227.012L55.792 198.157C56.6816 195.322 55.1058 192.301 52.2724 191.409C49.4389 190.516 46.4208 192.09 45.5312 194.924L36.3971 224.027L14.6506 224.027L39.5057 144.712ZM94.5942 69.7298V107.931H104.993V59.3113H90.7812L88.0081 69.7298H94.5942Z" fill="#80EB84"/>
</svg>
