<svg width="22" height="22" viewBox="0 0 22 22" fill="none" xmlns="http://www.w3.org/2000/svg">
<g clip-path="url(#clip0_192_1055)">
<path d="M22 4.3036C21.1819 4.66035 20.3101 4.89682 19.4013 5.01164C20.3363 4.45669 21.0499 3.58463 21.3854 2.53351C20.5136 3.05019 19.5511 3.41514 18.5254 3.6188C17.6976 2.74264 16.5179 2.2 15.2309 2.2C12.7339 2.2 10.7236 4.21475 10.7236 6.68468C10.7236 7.04006 10.7539 7.38178 10.8281 7.70709C7.0785 7.5253 3.76063 5.73881 1.53175 3.01738C1.14262 3.68851 0.914375 4.45669 0.914375 5.28364C0.914375 6.8364 1.71875 8.21283 2.91775 9.00971C2.19313 8.99604 1.48225 8.78691 0.88 8.4575C0.88 8.47117 0.88 8.48894 0.88 8.50671C0.88 10.6855 2.44338 12.4952 4.4935 12.9121C4.12638 13.0119 3.72625 13.0597 3.311 13.0597C3.02225 13.0597 2.73075 13.0433 2.45712 12.9832C3.0415 14.7587 4.69975 16.0641 6.6715 16.1065C5.137 17.2997 3.18863 18.0187 1.07938 18.0187C0.7095 18.0187 0.35475 18.0023 8.19996e-09 17.9572C1.99788 19.238 4.36562 19.9692 6.919 19.9692C15.2185 19.9692 19.756 13.1349 19.756 7.21092C19.756 7.01272 19.7491 6.82136 19.7395 6.63137C20.6346 5.99988 21.3868 5.2112 22 4.3036Z" fill="currentColor"/>
</g>
<defs>
<clipPath id="clip0_192_1055">
<rect width="22" height="22" fill="white"/>
</clipPath>
</defs>
</svg>
