<svg width="22" height="18" viewBox="0 0 22 18" fill="none" xmlns="http://www.w3.org/2000/svg">
<path d="M6.83994 17.7116C15.0475 17.7116 19.5367 10.9117 19.5367 5.0148C19.5367 4.82166 19.5367 4.62939 19.5237 4.43799C20.397 3.80629 21.1509 3.02413 21.75 2.12814C20.9356 2.48919 20.0716 2.72586 19.187 2.83023C20.1186 2.2726 20.8158 1.39544 21.1488 0.36204C20.2729 0.881872 19.3146 1.2482 18.3152 1.44519C17.6424 0.729776 16.7526 0.256047 15.7834 0.0973108C14.8142 -0.0614251 13.8198 0.103682 12.9539 0.567082C12.088 1.03048 11.399 1.76634 10.9935 2.66079C10.5879 3.55523 10.4885 4.5584 10.7106 5.51505C8.93643 5.42605 7.20084 4.96498 5.61644 4.16177C4.03204 3.35855 2.63425 2.23114 1.5138 0.85272C0.94316 1.83509 0.768384 2.99802 1.02506 4.10473C1.28173 5.21143 1.95056 6.17871 2.89536 6.80961C2.18518 6.7888 1.49046 6.59721 0.87 6.25107V6.30762C0.870281 7.33789 1.22693 8.33634 1.87944 9.13364C2.53196 9.93093 3.44018 10.478 4.45005 10.682C3.79309 10.8612 3.10379 10.8874 2.43513 10.7585C2.72039 11.6451 3.27557 12.4205 4.02306 12.9761C4.77054 13.5317 5.67296 13.8399 6.60417 13.8575C5.67896 14.5847 4.61944 15.1224 3.48623 15.4398C2.35302 15.7572 1.16835 15.848 0 15.7071C2.04072 17.0166 4.41518 17.7113 6.83994 17.7081" fill="white"/>
</svg>
