<svg width="22" height="23" viewBox="0 0 22 23" fill="none" xmlns="http://www.w3.org/2000/svg">
<path fill-rule="evenodd" clip-rule="evenodd" d="M11 0.12439C4.9225 0.12439 0 5.1714 0 11.4026C0 16.3932 3.14875 20.6085 7.52125 22.1028C8.07125 22.2015 8.2775 21.8632 8.2775 21.5671C8.2775 21.2993 8.26375 20.4111 8.26375 19.4666C5.5 19.9882 4.785 18.7758 4.565 18.1414C4.44125 17.8171 3.905 16.8162 3.4375 16.5483C3.0525 16.3368 2.5025 15.8152 3.42375 15.8011C4.29 15.787 4.90875 16.6188 5.115 16.9572C6.105 18.663 7.68625 18.1837 8.31875 17.8876C8.415 17.1545 8.70375 16.6611 9.02 16.3791C6.5725 16.0972 4.015 15.1244 4.015 10.8105C4.015 9.58401 4.44125 8.56897 5.1425 7.77949C5.0325 7.49753 4.6475 6.34152 5.2525 4.79076C5.2525 4.79076 6.17375 4.4947 8.2775 5.94678C9.1575 5.69302 10.0925 5.56614 11.0275 5.56614C11.9625 5.56614 12.8975 5.69302 13.7775 5.94678C15.8813 4.48061 16.8025 4.79076 16.8025 4.79076C17.4075 6.34152 17.0225 7.49753 16.9125 7.77949C17.6137 8.56897 18.04 9.56991 18.04 10.8105C18.04 15.1385 15.4688 16.0972 13.0213 16.3791C13.42 16.7316 13.7637 17.4083 13.7637 18.4656C13.7637 19.9741 13.75 21.1865 13.75 21.5671C13.75 21.8632 13.9562 22.2156 14.5062 22.1028C16.6899 21.347 18.5875 19.9081 19.9318 17.9886C21.2761 16.0691 21.9994 13.7657 22 11.4026C22 5.1714 17.0775 0.12439 11 0.12439Z" fill="currentColor"/>
</svg>
