<svg width="61" height="38" viewBox="0 0 61 38" fill="none" xmlns="http://www.w3.org/2000/svg">
<path d="M12.5072 38C9.87122 38 7.12101 37.4122 4.93315 35.4646C2.798 33.5696 1.32185 30.8324 0.768298 27.7531C-0.286095 21.9014 -0.250948 15.4181 0.847377 9.94374C1.04068 8.98747 1.33943 7.73292 1.97206 6.49592C3.64152 3.20602 6.68168 0.960118 10.0997 0.4776C13.8955 -0.0575572 18.1482 0.925026 20.4327 1.45141L21.0302 1.59178C28.0683 3.14461 35.2206 2.94283 42.285 1.00398L42.5047 0.942572C49.0331 -0.873452 53.8394 -0.0663301 56.8005 3.37271C58.6281 5.48702 59.8143 8.82078 60.1306 10.4175C61.6331 17.9009 60.8599 23.2876 60.2448 27.6215C59.8406 30.4815 58.5578 33.052 56.6423 34.8505C51.6779 39.5353 44.2796 37.6579 40.7298 36.763C40.2641 36.6402 39.8599 36.5349 39.5348 36.4735C33.3227 35.2365 26.9524 35.2979 20.6084 36.684C20.3624 36.7367 20.0549 36.8156 19.7034 36.9034C17.99 37.3332 15.3101 38 12.5072 38ZM12.4721 8.38213C12.0415 8.38213 11.6198 8.40845 11.2244 8.46109C10.4072 8.57514 9.63398 9.2068 9.1595 10.1455C8.9662 10.5228 8.8344 11.1281 8.74653 11.5492C7.8503 15.9972 7.83273 21.533 8.69381 26.3494C8.92227 27.639 9.50218 28.7795 10.2842 29.4726C11.611 30.6482 16.2239 29.4901 17.744 29.1129C18.1921 28.9988 18.5787 28.9023 18.8951 28.8321C26.3285 27.2179 33.8059 27.1302 41.1164 28.5953C41.5469 28.683 42.0917 28.8146 42.7155 28.9725C45.044 29.5603 49.367 30.6569 51.1155 29.0076C51.7042 28.4549 52.1172 27.5425 52.2666 26.4897C52.8289 22.5769 53.4616 18.1378 52.2314 11.9966C52.0908 11.286 51.344 9.37349 50.6938 8.619C50.3599 8.23299 49.1034 7.46096 44.6925 8.70673L44.4201 8.77692C36.0817 11.0667 27.6289 11.2948 19.2992 9.46122L18.6315 9.3033C17.1553 8.96115 14.616 8.38213 12.4721 8.38213Z" fill="#6BE870"/>
</svg>
