<svg width="5192" height="1463" viewBox="0 0 5192 1463" fill="none" xmlns="http://www.w3.org/2000/svg">
<path opacity="0.1" d="M480.947 1463C379.686 1463 274.037 1440.37 189.99 1365.39C107.969 1292.43 51.263 1187.05 29.9982 1068.49C-10.5062 843.205 -9.15603 593.598 33.036 382.834C40.4618 346.018 51.9381 297.718 76.2407 250.093C140.373 123.432 257.16 36.9646 388.462 18.3876C534.278 -2.21595 697.645 35.6135 785.405 55.8793L808.357 61.2835C1078.72 121.068 1353.48 113.299 1624.86 38.6534L1633.3 36.289C1884.09 -33.6279 2068.72 -2.55372 2182.47 129.849C2252.68 211.25 2298.24 339.6 2310.39 401.073C2368.11 689.185 2338.41 896.571 2314.78 1063.43C2299.26 1173.54 2249.98 1272.5 2176.39 1341.74C1985.68 1522.11 1701.48 1449.83 1565.11 1415.38C1547.22 1410.65 1531.7 1406.59 1519.21 1404.23C1280.57 1356.6 1035.86 1358.97 792.156 1412.34C782.705 1414.36 770.891 1417.4 757.389 1420.78C691.57 1437.33 588.621 1463 480.947 1463ZM479.597 322.712C463.057 322.712 446.856 323.725 431.667 325.752C400.276 330.143 370.572 354.462 352.346 390.602C344.92 405.126 339.857 428.432 336.481 444.644C302.053 615.89 301.378 829.019 334.456 1014.45C343.232 1064.1 365.509 1108.01 395.55 1134.69C446.518 1179.95 623.725 1135.37 682.119 1120.85C699.333 1116.46 714.185 1112.74 726.336 1110.04C1011.89 1047.89 1299.14 1044.51 1579.97 1100.92C1596.51 1104.3 1617.43 1109.36 1641.4 1115.44C1730.84 1138.07 1896.91 1180.29 1964.08 1116.79C1986.7 1095.51 2002.56 1060.39 2008.3 1019.85C2029.9 869.213 2054.2 698.304 2006.95 461.87C2001.55 434.512 1972.86 360.879 1947.88 331.832C1935.05 316.97 1886.79 287.247 1717.34 335.209L1706.88 337.911C1386.56 426.068 1061.85 434.849 741.863 364.257L716.21 358.177C659.504 345.004 561.956 322.712 479.597 322.712Z" fill="#86EC8A"/>
<path opacity="0.1" d="M3328.67 1463C3227.41 1463 3121.76 1440.37 3037.71 1365.39C2955.69 1292.43 2898.99 1187.05 2877.72 1068.49C2837.22 843.205 2838.57 593.598 2880.76 382.834C2888.18 346.018 2899.66 297.718 2923.96 250.093C2988.1 123.432 3104.88 36.9646 3236.18 18.3876C3382 -2.21595 3545.37 35.6135 3633.13 55.8793L3656.08 61.2835C3926.45 121.068 4201.2 113.299 4472.58 38.6534L4481.02 36.289C4731.81 -33.6279 4916.44 -2.55372 5030.19 129.849C5100.4 211.25 5145.97 339.6 5158.12 401.073C5215.84 689.185 5186.13 896.571 5162.51 1063.43C5146.98 1173.54 5097.7 1272.5 5024.12 1341.74C4833.41 1522.11 4549.2 1449.83 4412.84 1415.38C4394.95 1410.65 4379.42 1406.59 4366.93 1404.23C4128.29 1356.6 3883.58 1358.97 3639.88 1412.34C3630.43 1414.36 3618.61 1417.4 3605.11 1420.78C3539.29 1437.33 3436.34 1463 3328.67 1463ZM3327.32 322.712C3310.78 322.712 3294.58 323.725 3279.39 325.752C3248 330.143 3218.3 354.462 3200.07 390.602C3192.64 405.126 3187.58 428.432 3184.2 444.644C3149.78 615.89 3149.1 829.019 3182.18 1014.45C3190.95 1064.1 3213.23 1108.01 3243.27 1134.69C3294.24 1179.95 3471.45 1135.37 3529.84 1120.85C3547.06 1116.46 3561.91 1112.74 3574.06 1110.04C3859.61 1047.89 4146.86 1044.51 4427.69 1100.92C4444.23 1104.3 4465.16 1109.36 4489.12 1115.44C4578.57 1138.07 4744.64 1180.29 4811.81 1116.79C4834.42 1095.51 4850.28 1060.39 4856.02 1019.85C4877.62 869.213 4901.93 698.304 4854.67 461.87C4849.27 434.512 4820.58 360.879 4795.6 331.832C4782.78 316.97 4734.51 287.247 4565.07 335.209L4554.6 337.911C4234.28 426.068 3909.57 434.849 3589.59 364.257L3563.93 358.177C3507.23 345.004 3409.68 322.712 3327.32 322.712Z" fill="#86EC8A"/>
</svg>
