<svg width="1920" height="1463" viewBox="0 0 1920 1463" fill="none" xmlns="http://www.w3.org/2000/svg">
<path opacity="0.1" d="M-912.26 1463C-1013.52 1463 -1119.17 1440.37 -1203.22 1365.39C-1285.24 1292.43 -1341.94 1187.05 -1363.21 1068.49C-1403.71 843.205 -1402.36 593.598 -1360.17 382.834C-1352.75 346.018 -1341.27 297.718 -1316.97 250.093C-1252.83 123.432 -1136.05 36.9646 -1004.75 18.3876C-858.929 -2.21595 -695.562 35.6135 -607.802 55.8793L-584.85 61.2835C-314.483 121.068 -39.7283 113.299 231.651 38.6534L240.089 36.289C490.879 -33.6279 675.511 -2.55372 789.261 129.849C859.469 211.25 905.036 339.6 917.187 401.073C974.906 689.185 945.203 896.571 921.575 1063.43C906.049 1173.54 856.768 1272.5 783.185 1341.74C592.477 1522.11 308.272 1449.83 171.907 1415.38C154.018 1410.65 138.491 1406.59 126.002 1404.23C-112.636 1356.6 -357.35 1358.97 -601.051 1412.34C-610.502 1414.36 -622.316 1417.4 -635.818 1420.78C-701.637 1437.33 -804.586 1463 -912.26 1463ZM-913.61 322.712C-930.15 322.712 -946.351 323.725 -961.54 325.752C-992.931 330.143 -1022.63 354.462 -1040.86 390.602C-1048.29 405.126 -1053.35 428.432 -1056.73 444.644C-1091.15 615.89 -1091.83 829.019 -1058.75 1014.45C-1049.97 1064.1 -1027.7 1108.01 -997.657 1134.69C-946.689 1179.95 -769.482 1135.37 -711.088 1120.85C-693.874 1116.46 -679.022 1112.74 -666.871 1110.04C-381.315 1047.89 -94.0716 1044.51 186.759 1100.92C203.298 1104.3 224.225 1109.36 248.19 1115.44C337.638 1138.07 503.705 1180.29 570.875 1116.79C593.49 1095.51 609.354 1060.39 615.092 1019.85C636.695 869.213 660.997 698.304 613.742 461.87C608.342 434.512 579.651 360.879 554.673 331.832C541.847 316.97 493.579 287.247 324.136 335.209L313.672 337.911C-6.64972 426.068 -331.36 434.849 -651.344 364.257L-676.997 358.177C-733.703 345.004 -831.251 322.712 -913.61 322.712Z" fill="#86EC8A"/>
<path opacity="0.1" d="M1935.46 1463C1834.2 1463 1728.55 1440.37 1644.51 1365.39C1562.48 1292.43 1505.78 1187.05 1484.51 1068.49C1444.01 843.205 1445.36 593.598 1487.55 382.834C1494.98 346.018 1506.45 297.718 1530.76 250.093C1594.89 123.432 1711.68 36.9646 1842.98 18.3876C1988.79 -2.21595 2152.16 35.6135 2239.92 55.8793L2262.87 61.2835C2533.24 121.068 2807.99 113.299 3079.37 38.6534L3087.81 36.289C3338.6 -33.6279 3523.23 -2.55372 3636.98 129.849C3707.19 211.25 3752.76 339.6 3764.91 401.073C3822.63 689.185 3792.93 896.571 3769.3 1063.43C3753.77 1173.54 3704.49 1272.5 3630.91 1341.74C3440.2 1522.11 3155.99 1449.83 3019.63 1415.38C3001.74 1410.65 2986.21 1406.59 2973.73 1404.23C2735.09 1356.6 2490.37 1358.97 2246.67 1412.34C2237.22 1414.36 2225.41 1417.4 2211.91 1420.78C2146.09 1437.33 2043.14 1463 1935.46 1463ZM1934.11 322.712C1917.57 322.712 1901.37 323.725 1886.18 325.752C1854.79 330.143 1825.09 354.462 1806.86 390.602C1799.44 405.126 1794.37 428.432 1791 444.644C1756.57 615.89 1755.89 829.019 1788.97 1014.45C1797.75 1064.1 1820.03 1108.01 1850.07 1134.69C1901.03 1179.95 2078.24 1135.37 2136.63 1120.85C2153.85 1116.46 2168.7 1112.74 2180.85 1110.04C2466.41 1047.89 2753.65 1044.51 3034.48 1100.92C3051.02 1104.3 3071.95 1109.36 3095.91 1115.44C3185.36 1138.07 3351.43 1180.29 3418.6 1116.79C3441.21 1095.51 3457.08 1060.39 3462.82 1019.85C3484.42 869.213 3508.72 698.304 3461.47 461.87C3456.06 434.512 3427.37 360.879 3402.4 331.832C3389.57 316.97 3341.3 287.247 3171.86 335.209L3161.4 337.911C2841.07 426.068 2516.36 434.849 2196.38 364.257L2170.73 358.177C2114.02 345.004 2016.47 322.712 1934.11 322.712Z" fill="#86EC8A"/>
</svg>
