<svg width="95" height="31" viewBox="0 0 95 31" fill="none" xmlns="http://www.w3.org/2000/svg">
<g clip-path="url(#clip0_102_188)">
<path d="M0.052002 29.497V24.9489L6.73775 4.92206H1.01537V0.737061H11.3427V4.92206L4.56055 25.312H11.3427V29.497H0.052002Z" fill="white"/>
<path d="M17.3314 23.9363V23.5923V6.64208C17.3314 6.55291 17.3314 6.43825 17.3314 6.29811C17.3442 6.14523 17.3827 5.85222 17.4469 5.41907C17.524 4.98591 17.6268 4.57187 17.7553 4.17694C17.8837 3.78201 18.0893 3.34886 18.3718 2.87749C18.6544 2.39339 18.9819 1.97934 19.3545 1.63537C19.7398 1.2914 20.2471 1.00475 20.8765 0.775435C21.506 0.533381 22.2124 0.412354 22.9959 0.412354C23.7795 0.412354 24.486 0.527011 25.1153 0.756326C25.7447 0.985642 26.2457 1.28502 26.6182 1.65448C27.0036 2.01119 27.3376 2.41249 27.6201 2.85838C27.9155 3.30428 28.1275 3.75016 28.256 4.19605C28.3843 4.64194 28.4807 5.04961 28.5449 5.41907C28.622 5.77578 28.6605 6.06879 28.6605 6.29811L28.6798 6.64208V23.5923C28.6798 23.6815 28.6734 23.8025 28.6605 23.9553C28.6605 24.0956 28.622 24.3821 28.5449 24.8153C28.4807 25.2485 28.3843 25.6625 28.256 26.0574C28.1275 26.4396 27.922 26.8727 27.6394 27.3569C27.3567 27.8283 27.0229 28.236 26.6375 28.5799C26.2521 28.9239 25.7447 29.2169 25.1153 29.459C24.486 29.6883 23.7795 29.803 22.9959 29.803C22.2124 29.803 21.506 29.6883 20.8765 29.459C20.2471 29.2296 19.7398 28.9366 19.3545 28.5799C18.9819 28.2104 18.6544 27.8028 18.3718 27.3569C18.0893 26.911 17.8837 26.4715 17.7553 26.0384C17.6268 25.5924 17.524 25.1912 17.4469 24.8344C17.3827 24.465 17.3442 24.1656 17.3314 23.9363ZM21.5894 23.5923C21.5894 23.6432 21.5894 23.7197 21.5894 23.8216C21.5894 23.9107 21.6087 24.0764 21.6473 24.3184C21.6986 24.5605 21.7628 24.7771 21.8399 24.9682C21.9299 25.1466 22.0712 25.3122 22.2638 25.465C22.4694 25.6179 22.7134 25.6944 22.9959 25.6944C23.2785 25.6944 23.5161 25.6243 23.7088 25.4841C23.9143 25.3313 24.0621 25.1529 24.152 24.9491C24.242 24.7452 24.3061 24.5414 24.3447 24.3375C24.3961 24.1337 24.4217 23.9553 24.4217 23.8025V23.5923V6.64208C24.4217 6.57839 24.4217 6.50194 24.4217 6.41276C24.4217 6.32359 24.3961 6.15798 24.3447 5.91592C24.3061 5.66112 24.242 5.44455 24.152 5.26619C24.0621 5.07509 23.9143 4.90311 23.7088 4.75023C23.5161 4.59736 23.2785 4.52092 22.9959 4.52092C22.5464 4.52092 22.206 4.69927 21.9748 5.05598C21.7436 5.39996 21.6215 5.7503 21.6087 6.10701L21.5894 6.64208V23.5923Z" fill="white"/>
<path d="M35.4969 29.4975V0.737549H39.7551V10.3115V11.5727H39.9092L40.1212 10.3115L43.6663 0.737549H47.8087L43.8975 10.1968L48.329 29.4975H44.1673L41.2193 16.9807L41.1038 16.3883H40.9882L40.7377 16.9807L39.7551 19.3311V29.4975H35.4969Z" fill="white"/>
<path d="M53.5089 0.737549H57.69L59.8287 9.92927L59.9442 10.9803H60.0214L60.1369 9.92927L62.2756 0.737549H66.4565L62.1215 17.2482V29.4975H57.8634V17.2482L53.5089 0.737549Z" fill="white"/>
<path d="M71.8661 23.9363V23.5923V6.64208C71.8661 6.55291 71.8661 6.43825 71.8661 6.29811C71.8789 6.14523 71.9175 5.85222 71.9817 5.41907C72.0588 4.98591 72.1615 4.57187 72.29 4.17694C72.4184 3.78201 72.6239 3.34886 72.9065 2.87749C73.1891 2.39339 73.5166 1.97934 73.8892 1.63537C74.2745 1.2914 74.7818 1.00475 75.4113 0.775435C76.0407 0.533381 76.7471 0.412354 77.5307 0.412354C78.3142 0.412354 79.0206 0.527011 79.6501 0.756326C80.2795 0.985642 80.7804 1.28502 81.1529 1.65448C81.5383 2.01119 81.8722 2.41249 82.1548 2.85838C82.4502 3.30428 82.6622 3.75016 82.7906 4.19605C82.9191 4.64194 83.0155 5.04961 83.0797 5.41907C83.1567 5.77578 83.1952 6.06879 83.1952 6.29811L83.2145 6.64208V23.5923C83.2145 23.6815 83.208 23.8025 83.1952 23.9553C83.1952 24.0956 83.1567 24.3821 83.0797 24.8153C83.0155 25.2485 82.9191 25.6625 82.7906 26.0574C82.6622 26.4396 82.4567 26.8727 82.1741 27.3569C81.8915 27.8283 81.5575 28.236 81.1722 28.5799C80.7869 28.9239 80.2795 29.2169 79.6501 29.459C79.0206 29.6883 78.3142 29.803 77.5307 29.803C76.7471 29.803 76.0407 29.6883 75.4113 29.459C74.7818 29.2296 74.2745 28.9366 73.8892 28.5799C73.5166 28.2104 73.1891 27.8028 72.9065 27.3569C72.6239 26.911 72.4184 26.4715 72.29 26.0384C72.1615 25.5924 72.0588 25.1912 71.9817 24.8344C71.9175 24.465 71.8789 24.1656 71.8661 23.9363ZM76.1242 23.5923C76.1242 23.6432 76.1242 23.7197 76.1242 23.8216C76.1242 23.9107 76.1434 24.0764 76.182 24.3184C76.2334 24.5605 76.2976 24.7771 76.3747 24.9682C76.4645 25.1466 76.6058 25.3122 76.7985 25.465C77.004 25.6179 77.248 25.6944 77.5307 25.6944C77.8133 25.6944 78.0509 25.6243 78.2435 25.4841C78.449 25.3313 78.5968 25.1529 78.6867 24.9491C78.7766 24.7452 78.8409 24.5414 78.8793 24.3375C78.9308 24.1337 78.9564 23.9553 78.9564 23.8025V23.5923V6.64208C78.9564 6.57839 78.9564 6.50194 78.9564 6.41276C78.9564 6.32359 78.9308 6.15798 78.8793 5.91592C78.8409 5.66112 78.7766 5.44455 78.6867 5.26619C78.5968 5.07509 78.449 4.90311 78.2435 4.75023C78.0509 4.59736 77.8133 4.52092 77.5307 4.52092C77.0811 4.52092 76.7408 4.69927 76.5095 5.05598C76.2783 5.39996 76.1563 5.7503 76.1434 6.10701L76.1242 6.64208V23.5923Z" fill="white"/>
<path d="M89.4717 29.4973V25.1594H93.6141V29.4973H89.4717Z" fill="#3FAFED"/>
</g>
<defs>
<clipPath id="clip0_102_188">
<rect width="94.2641" height="30.4395" fill="white" transform="translate(0.0517578 0.412109)"/>
</clipPath>
</defs>
</svg>
