<svg width="95" height="117" viewBox="0 0 95 117" fill="none" xmlns="http://www.w3.org/2000/svg">
<path d="M22.5469 49.0917L25.0492 30.2628L3.31006 15.1841L23.1725 21.9032L27.8642 14.7153L44.9898 4.08984L82.7595 24.8721L84.7144 56.592L67.9017 79.9525L54.6081 81.9838L61.4895 69.4052V57.2954L56.4849 47.8417L51.402 44.4822L43.5821 52.5295V61.0456L37.4828 66.7489L29.741 67.6863L26.3004 69.6395L20.6701 67.8427L18.3241 59.4048L22.5469 53.4669V49.0917Z" fill="white"/>
<path d="M57.2665 15.0283C53.1221 14.1687 48.5867 14.4033 48.5867 14.4033C48.5867 14.4033 47.1007 21.2785 37.8733 23.0755C37.9517 23.0755 50.0723 27.2162 57.2665 15.0283Z" fill="#94A6C3"/>
<path d="M61.0194 77.3744C66.0241 73.4681 69.7776 68.0771 71.498 61.9831C71.5762 61.7488 72.28 61.358 72.7492 61.0456C73.5311 60.5768 74.313 60.1861 74.4696 59.561C74.7823 57.7641 74.9386 55.8892 74.9386 54.0142C74.9386 53.3108 74.2349 52.6077 73.5311 51.9045C72.9837 51.4357 72.4363 50.8888 72.4363 50.4983C71.6544 43.3885 68.3701 36.7477 63.1309 31.9037L62.5835 32.4506C67.6663 37.2166 70.9506 43.7011 71.6544 50.5764C71.7325 51.2014 72.3581 51.8264 72.9837 52.4515C73.5311 52.9203 74.1567 53.6234 74.1567 53.9358C74.1567 55.7328 74.0004 57.5298 73.6875 59.3268C73.6093 59.6394 72.9055 59.9518 72.3581 60.2644C71.5762 60.6549 70.8724 61.0456 70.7161 61.6707C68.8393 68.3114 64.5384 74.0931 58.83 77.8432C59.8464 75.6555 63.0525 68.5459 64.7729 64.952L64.4602 53.3891L54.529 43.7792L48.8988 44.5604L42.7211 54.5608C42.7211 54.5608 45.6145 58.2329 41.5481 62.53C37.5601 66.749 34.4321 67.6864 34.4321 67.6864L31.5387 66.1239C32.3988 65.0301 34.1192 63.3895 35.4486 62.2957C37.7164 60.4206 39.9842 60.2644 39.9842 58.2329C40.0624 54.0142 35.5267 55.1859 35.5267 55.1859L33.8847 56.7485L33.181 62.53L29.7401 66.8271L29.3493 66.749L23.719 65.4989C23.719 65.4989 27.1596 63.7019 27.707 61.6707C28.2544 59.7175 26.6122 53.2327 26.534 52.8422C26.6122 52.9203 28.1763 54.2484 28.88 56.4359C30.1312 52.9984 31.7732 49.7171 32.2425 49.4044C32.7117 49.092 39.0457 45.7324 39.0457 45.7324L36.9345 51.2795L38.4983 50.4202L42.2518 41.201C42.2518 41.201 45.9272 39.404 48.664 39.404C53.5905 39.3259 60.8631 33.31 57.5788 22.5283C58.5171 22.9191 74.7823 31.0444 77.5975 46.9824C79.7088 59.2487 72.7492 70.7334 61.0194 77.3744Z" fill="#94A6C3"/>
<path d="M42.4091 16.7469C44.2077 14.6373 43.5037 11.5122 43.5037 11.5122L38.2645 19.247C38.1863 19.247 40.1412 19.3251 42.4091 16.7469Z" fill="#1B314F"/>
<path d="M24.8132 59.0148L25.4388 55.8896C25.4388 55.8896 22.8583 60.421 22.6238 61.0461C22.3893 61.7494 22.7802 62.9995 23.7968 62.9211C24.8132 62.843 26.0644 61.3587 26.0644 60.2648C26.0644 58.8586 24.8132 59.0148 24.8132 59.0148Z" fill="#1B314F"/>
<path d="M71.2637 9.32502C71.2637 9.32502 75.1736 9.48145 79.2397 9.95005C70.0907 2.76236 61.4107 0.652751 54.3729 0.652751C44.6762 0.652751 38.1076 4.63744 37.7166 4.87174L40.7663 0.0277251C40.7663 0.0277251 28.5673 -1.14399 24.2664 11.747C23.1718 9.01262 22.1551 5.02794 22.1551 5.02794C22.1551 5.02794 15.8211 10.5751 18.7927 19.7943C11.5201 17.138 1.11979 13.4659 0.728806 13.3878C0.181412 13.3097 0.0250269 13.544 0.0250269 13.544C0.0250269 13.544 -0.131382 13.7783 0.33782 14.169C1.19798 14.8722 17.6196 26.9822 21.2168 29.3259C20.4347 32.1386 20.4347 33.4667 21.2168 34.7949C22.3114 36.5919 22.3896 37.5293 22.2333 38.8577C22.0769 40.1858 20.6694 51.6706 20.3565 53.0768C20.0438 54.4833 16.7593 59.4835 16.9159 60.9679C17.0722 62.4522 19.1053 68.7806 20.9039 69.484C22.2333 69.9526 25.5178 70.9683 27.7072 70.9683C28.4891 70.9683 29.1929 70.8121 29.5058 70.4995C30.8351 69.3275 31.2262 69.0932 32.1645 69.0932C32.2426 69.0932 32.3208 69.0932 32.3992 69.0932C32.79 69.0932 33.2593 69.1713 33.8067 69.1713C35.0579 69.1713 36.6999 68.937 37.8729 67.8432C39.5933 66.1243 42.5649 63.7804 43.5032 62.6868C44.6762 61.2022 45.3018 59.1709 44.9891 57.1396C44.7543 55.2646 45.771 53.6238 46.944 51.9832C48.4297 50.0298 51.1665 46.5142 51.1665 46.5142C56.5623 50.5767 59.9247 56.7489 59.9247 63.6242C59.9247 75.8123 49.29 85.6563 36.1527 85.6563C34.1194 85.6563 32.1645 85.422 30.2095 84.9532C36.2309 87.0628 41.3137 87.7659 45.4581 87.7659C54.2947 87.7659 58.9865 84.5627 58.9865 84.5627C58.9865 84.5627 57.3442 86.6721 54.6856 89.0941C54.7637 89.0941 54.7637 89.0941 54.7637 89.0941C69.3869 87.0628 76.5029 75.0309 76.5029 75.0309C76.5029 75.0309 75.9555 78.9375 75.2517 81.5938C94.7231 66.9839 91.4388 48.7017 91.3606 48.0766C91.517 48.3112 93.4719 50.6548 94.4885 51.9049C97.6165 19.7162 71.2637 9.32502 71.2637 9.32502ZM41.3137 60.7336C41.0008 61.1241 39.6715 62.296 38.7332 63.1554C37.7947 64.0149 36.7783 64.8742 35.9961 65.6555C35.6835 65.9681 35.0579 66.1243 34.1194 66.1243C33.8067 66.1243 33.4938 66.1243 33.2593 66.1243C33.103 66.1243 32.9464 66.1243 32.79 66.1243C32.6337 66.1243 32.5555 66.1243 32.4774 66.1243C32.2426 66.1243 32.0081 66.1243 31.7734 66.1243C32.9464 64.5618 36.3872 60.9679 37.5602 60.1867C38.9677 59.249 39.6715 58.3116 38.8114 56.6708C37.9511 55.03 35.6835 55.4208 35.6835 55.4208C35.6835 55.4208 37.0128 54.8738 38.1858 54.8738C36.6999 54.4833 34.8231 54.8738 33.9631 55.7334C33.0248 56.5927 33.1811 59.6397 32.79 61.5929C32.3992 63.6242 31.0696 64.64 29.0365 66.515C27.9417 67.5305 27.1598 67.8432 26.5342 67.8432C25.2048 67.6089 23.6408 67.2181 22.5462 66.8274C21.764 65.8119 20.5912 62.4522 20.2783 61.046C20.5128 60.2648 21.4513 58.624 21.9206 57.6866C22.8588 55.8896 23.4063 54.8738 23.5626 53.9364C23.8755 52.6083 24.8922 44.4046 25.283 40.9671C26.2997 42.2952 27.7072 44.4829 27.3945 45.8892C29.6621 42.6859 28.0201 39.5608 27.2379 38.3108C26.5342 37.0607 25.5959 34.5606 26.3778 31.9041C27.1598 29.2478 29.975 21.9036 29.975 21.9036C29.975 21.9036 30.9133 23.5444 32.2426 23.232C33.572 22.9194 44.2851 6.82491 44.2851 6.82491C44.2851 6.82491 47.1785 13.1533 44.1288 17.763C41.0008 22.3725 37.9511 23.232 37.9511 23.232C37.9511 23.232 42.252 24.0133 46.2403 21.1224C47.8823 24.9507 49.4464 28.9354 49.5245 29.4823C49.29 30.029 46.1619 37.5293 45.8492 37.9981C45.6929 38.1543 44.598 38.4669 43.8161 38.6231C42.4868 39.0139 41.7046 39.2482 41.3919 39.4827C40.8445 39.9513 38.3422 46.8266 37.1691 50.1863C35.7616 50.5767 34.3541 51.3582 33.3375 52.9207C33.8849 52.5299 35.6053 52.2956 36.8565 52.1394C37.9511 52.0613 41.3137 53.8583 42.1738 57.2177C42.1738 57.2958 42.1738 57.2958 42.1738 57.3739C42.3302 58.624 41.9393 59.7959 41.3137 60.7336ZM33.9631 61.671C34.6668 60.6553 34.5886 58.9366 34.6668 58.3897C34.745 57.8428 34.9015 56.827 35.5271 56.6708C36.1527 56.5146 37.6384 56.7489 37.6384 57.8428C37.6384 58.8585 36.5436 59.0928 35.7616 59.7959C35.2142 60.3429 34.1194 61.5148 33.9631 61.671ZM65.1642 46.7485C65.9461 42.764 66.0243 39.3263 65.7898 36.5138C68.8395 40.5763 70.7163 45.4984 71.2637 50.5767C71.3419 51.2018 71.9675 51.8268 72.593 52.4518C73.1405 52.9206 73.766 53.5457 73.766 53.9364C73.766 55.7334 73.6095 57.5301 73.2968 59.3271C73.2186 59.5616 72.5149 59.9521 71.9675 60.2648C71.1853 60.6553 70.4815 61.046 70.3252 61.671C68.6048 67.687 64.9294 72.9996 60.0032 76.7497C67.2754 69.1713 70.7945 56.6708 65.1642 46.7485ZM60.2377 77.4529C65.3205 73.5465 69.2304 68.0775 70.9508 61.9053C71.029 61.671 71.7327 61.2803 72.202 60.9679C72.9839 60.5772 73.766 60.1086 73.9224 59.4835C74.2351 57.6866 74.3916 55.8115 74.3916 53.9364C74.3916 53.2333 73.6879 52.5299 72.9839 51.8268C72.593 51.3582 71.9675 50.8113 71.9675 50.4206C71.3419 44.7172 69.074 39.3263 65.5553 34.873C63.9912 25.4976 57.7353 22.607 57.579 22.5287C57.7353 22.7632 61.8015 28.6227 58.9865 35.498C56.0931 42.4514 48.6644 41.3578 48.0389 41.4359C47.4133 41.4359 44.9891 44.561 41.9393 50.3425C41.5483 50.1863 39.9062 49.7955 38.0292 50.1082C39.437 46.2016 41.5483 40.6544 41.9393 40.1858C42.0957 40.0294 43.2687 39.717 44.0506 39.4827C45.5365 39.092 46.2403 38.8577 46.4748 38.5451C46.6311 38.3108 47.413 36.5138 48.1952 34.6387C48.8989 34.6387 50.6975 34.4825 50.8539 34.4042C51.0102 34.248 52.4961 30.4197 52.4961 29.9509C52.4961 29.5604 49.4464 21.982 48.2734 19.0911C48.8208 18.4661 49.3682 17.6849 49.9156 16.8253C65.9461 18.5442 78.4578 32.1386 78.4578 48.6236C78.4578 61.2803 71.029 72.2965 60.2377 77.4529Z" fill="#1B314F"/>
<path d="M39.4371 35.2637C40.9227 33.5448 40.1408 30.3416 37.404 29.7947C38.1077 28.1539 39.1241 24.8726 39.1241 24.8726C39.1241 24.8726 31.1481 37.3731 30.4441 37.6074C29.7404 37.8419 29.0366 35.1073 29.0366 35.1073C27.5509 40.8108 31.5389 41.5921 32.0082 39.7951C34.1976 39.2482 37.9511 36.9042 39.4371 35.2637Z" fill="#1B314F"/>
<path d="M32.6333 38.3103L36.6995 31.3569C36.6995 31.3569 39.0455 32.5289 37.8725 34.404C36.3868 36.5914 32.6333 38.3103 32.6333 38.3103Z" fill="#FFD923"/>
<path d="M82.9153 70.499C81.7423 72.0617 80.413 73.7022 78.8491 75.2649C88.9367 55.8891 79.3184 38.1538 78.9273 37.4507C79.631 38.1538 80.3348 38.9353 80.9604 39.6384C88.7022 48.2326 89.6404 61.1236 82.9153 70.499Z" fill="#D82122"/>
<path d="M92.2995 45.5768C88.7808 36.1233 83.7761 28.0761 72.75 20.8103C62.1151 13.7786 50.6982 14.3255 50.0726 14.4036C49.9944 14.4036 49.9163 14.4036 49.9163 14.4036C50.3071 14.2474 50.6982 14.1693 51.089 14.0912C53.5132 13.31 56.6411 12.685 59.7691 12.2943C68.0583 11.1223 76.4254 13.935 82.1338 19.9508C82.212 20.0289 82.212 20.0289 82.2902 20.107C88.7808 26.9822 92.1432 35.5764 92.2995 45.5768Z" fill="#D82122"/>
<path d="M70.248 6.90291C58.5964 4.71544 51.0894 5.80906 45.6939 7.84057C45.5375 7.21554 44.9901 5.96549 44.5209 4.94973C42.8786 6.90291 41.1584 9.24682 40.0636 10.7312C37.092 12.7627 35.8408 14.7159 35.8408 14.7159C37.5612 8.85609 42.5659 4.4809 48.6654 3.38729C50.3856 3.07465 52.2624 2.91846 54.2957 2.91846C59.6912 2.99656 65.087 4.32471 70.248 6.90291Z" fill="#D82122"/>
<path d="M27.16 21.9042C18.0109 21.5918 21.0607 10.9663 21.217 10.3413C21.217 10.4194 21.8426 18.7009 27.16 21.9042Z" fill="#D82122"/>
<path d="M36.1536 2.76221C29.1156 6.98119 30.5233 17.0597 30.5233 17.0597C23.7982 6.825 35.6062 2.9965 36.1536 2.76221Z" fill="#D82122"/>
<path d="M24.5792 24.7161C25.0485 25.1068 25.5177 25.8099 24.9703 26.8255C24.6574 27.3724 24.1884 27.2943 23.4844 26.9819C22.5461 26.5131 16.9159 23.2317 11.833 19.8721C17.6196 21.9033 23.4844 24.0911 24.4229 24.5599C24.4229 24.5599 24.5011 24.638 24.5792 24.7161Z" fill="white"/>
<path d="M16.6228 98.3146H21.1117V116.25H25.5992V93.8311H21.1117C19.9225 93.8346 18.783 94.308 17.9419 95.1481C17.1009 95.9881 16.6267 97.1264 16.6228 98.3146V98.3146Z" fill="white"/>
<path d="M30.0869 116.25H34.5758V107.283C34.5723 106.094 34.0982 104.956 33.2571 104.115C32.4161 103.275 31.2764 102.801 30.0869 102.798V116.25Z" fill="white"/>
<path d="M39.0635 102.798V116.25H43.551V107.283H48.0386V111.766C48.0425 112.954 48.5167 114.093 49.3577 114.933C50.1987 115.773 51.3382 116.246 52.5275 116.25V107.283C52.5239 106.094 52.0498 104.956 51.2088 104.115C50.3677 103.275 49.228 102.801 48.0386 102.798H39.0635Z" fill="white"/>
<path d="M79.4546 102.798H74.9657V98.3146C74.9622 97.1266 74.4882 95.9882 73.6474 95.1482C72.8066 94.3081 71.6672 93.8346 70.4781 93.8311V111.767H61.495V107.283H65.9839V102.798H61.5017C60.3125 102.802 59.1731 103.276 58.3324 104.116C57.4916 104.956 57.0177 106.095 57.0142 107.283V111.767C57.0177 112.955 57.4916 114.093 58.3324 114.933C59.1733 115.773 60.3126 116.247 61.5017 116.25H74.9657V107.283H79.4546V111.767C79.4581 112.955 79.932 114.093 80.7729 114.933C81.6137 115.773 82.753 116.247 83.9421 116.25V107.283C83.9386 106.095 83.4647 104.956 82.6239 104.116C81.7832 103.276 80.6438 102.802 79.4546 102.798V102.798Z" fill="white"/>
<path d="M30.0869 98.3146H34.5758C34.5719 97.1264 34.0977 95.9881 33.2567 95.1481C32.4156 94.308 31.2761 93.8346 30.0869 93.8311V98.3146Z" fill="white"/>
</svg>
