<svg width="133" height="21" viewBox="0 0 133 21" fill="none" xmlns="http://www.w3.org/2000/svg">
<path d="M19.1154 1.31636C18.8949 0.985906 18.5641 0.655448 18.2334 0.435144C17.9026 0.324992 17.5718 0.214844 17.1308 0.214844H7.84225C7.40124 0.214844 6.84999 0.324995 6.40899 0.545298C5.96799 0.765602 5.63724 1.20621 5.30649 1.53666L0.675966 9.38498C0.455466 9.71543 0.345215 10.156 0.345215 10.4865C0.345215 10.9271 0.455466 11.2576 0.675966 11.588L5.30649 19.4363C5.52699 19.8769 5.96799 20.2074 6.40899 20.4277C6.84999 20.648 7.40124 20.7582 7.84225 20.7582H17.0206C17.4616 20.7582 17.7923 20.648 18.2334 20.4277C18.5641 20.2074 18.8949 19.9871 19.1154 19.5465L23.7459 11.6982C23.9664 11.2576 24.1869 10.817 24.1869 10.2662C24.1869 9.71544 24.0766 9.27483 23.7459 8.83422L19.1154 1.31636ZM2.08166 10.7068L2.63291 9.82559L6.71218 2.77587L9.24794 7.18194C9.35819 7.40225 9.57869 7.5124 9.79919 7.5124C10.0197 7.5124 10.2402 7.5124 10.4607 7.40225C10.6812 7.29209 10.7914 7.07179 10.9017 6.85149C11.0119 6.63118 10.9017 6.41088 10.7914 6.19058L8.69669 2.77587C8.47619 2.55557 8.25568 2.33526 8.03518 2.22511C7.81468 2.11496 7.48393 2.00481 7.15318 1.89466H16.4418L12.0318 9.30237L11.701 9.63282C11.5908 9.74297 11.3703 9.74297 11.26 9.74297H3.51492C3.18417 9.74297 2.85341 9.85312 2.63291 9.96328C2.41241 10.156 2.19191 10.3763 2.08166 10.7068ZM16.4418 19.2986H8.173L10.7088 14.8926C10.819 14.7824 10.819 14.6723 10.819 14.5621V14.2317L10.7088 13.9012C10.7088 13.9012 10.5985 13.6809 10.4883 13.6809C10.378 13.6809 10.2678 13.5707 10.1575 13.5707H9.82675L9.496 13.6809L9.2755 13.9012L6.73974 18.3073L6.18849 19.1885C6.29874 18.9682 6.40899 18.6377 6.40899 18.4174C6.40899 18.1971 6.40899 17.8667 6.29874 17.6464L2.66047 11.3677H11.3978C11.5081 11.3677 11.7286 11.3677 11.8388 11.4779L12.1696 11.8083L16.0283 18.4174C16.2488 18.6377 16.4693 18.858 16.6898 18.9682C16.9103 19.0783 17.2411 19.1885 17.5719 19.1885H16.4693V19.2986H16.4418ZM22.0921 11.4779L18.0129 18.5276L13.6028 11.1199C13.4926 11.0097 13.4926 10.7894 13.4926 10.6793C13.4926 10.5691 13.4926 10.3488 13.6028 10.2387L18.0129 2.83095L18.5641 1.94973C18.3436 2.28019 18.3436 2.61064 18.3436 2.9411C18.3436 3.27155 18.4539 3.60201 18.6744 3.93247C18.7846 4.15277 22.2024 9.88066 22.2024 9.88066H17.0206C16.8001 9.88066 16.5796 9.99081 16.3591 10.101C16.2488 10.2111 16.1386 10.4314 16.1386 10.6517C16.1386 10.872 16.2488 11.0923 16.3591 11.2025C16.4693 11.3126 16.6898 11.4228 17.0206 11.4228H21.0999C21.4306 11.4228 21.7614 11.3126 21.9819 11.2025C22.2024 11.0923 22.5331 10.872 22.6434 10.5416C22.6434 10.5967 22.0921 11.4779 22.0921 11.4779ZM71.2363 9.27483C71.4568 8.94437 71.7875 8.61392 72.008 8.39361C72.3388 8.06316 72.89 7.95301 73.331 7.95301C73.4413 7.95301 73.6618 7.95301 73.772 8.06316L74.1028 8.39361C74.213 8.72407 74.3233 8.94437 74.3233 9.27483H76.1975C76.1975 8.06316 75.977 7.2921 75.536 6.74134C75.3155 6.52103 75.095 6.30073 74.7643 6.19058C74.4335 6.08043 74.1028 5.97027 73.772 5.97027C73.2208 5.97027 72.6695 6.08043 72.2285 6.41088C71.7875 6.63119 71.3465 7.07179 71.0158 7.40225V7.5124H70.7953L70.4645 6.30073H67.4877C67.3775 6.30073 67.2672 6.30073 67.157 6.41088L66.9365 6.63118L66.716 7.95301H70.1338C70.1338 7.95301 69.0313 7.953 69.0313 8.83422V13.5707H67.7082C67.598 13.5707 67.4877 13.5707 67.3775 13.6809L67.157 13.9012L66.716 15.3332H74.3508C74.4611 15.3332 74.5713 15.3332 74.6816 15.223L74.9021 15.0027L75.4533 13.5707H71.2638C71.2363 13.5707 71.2363 9.27483 71.2363 9.27483ZM85.7066 10.5967C85.2656 10.3763 84.7144 10.156 84.2734 10.0459L82.7299 9.71544C82.2889 9.60528 81.9581 9.49513 81.5171 9.27483C81.1864 9.16468 80.9659 8.83422 80.9659 8.61392C80.9659 8.39362 81.0761 8.28346 81.1864 8.17331C81.2966 8.06316 81.4069 7.95301 81.6274 7.84286C82.0684 7.7327 82.5094 7.62255 82.9504 7.62255C83.2811 7.62255 83.6119 7.62255 83.8324 7.7327L84.7144 7.95301C85.0451 8.06316 85.2656 8.17331 85.4861 8.28346L86.0374 8.61392L86.9194 7.18194C86.8091 7.07179 86.5886 6.96164 86.3681 6.85149C86.1476 6.63118 85.8169 6.52103 85.4861 6.41088L84.2734 6.08042C83.7221 5.97027 83.1709 5.97027 82.6196 5.97027C82.0684 5.97027 81.5171 6.08043 81.0761 6.19058C80.6351 6.30073 80.1941 6.52103 79.8634 6.74134C79.5326 6.96164 79.2019 7.2921 79.0916 7.62255C78.8711 7.95301 78.7609 8.39361 78.7609 8.72407C78.7609 9.16468 78.8711 9.60528 79.2019 10.0459C79.5326 10.3763 79.8634 10.7068 80.3044 10.9271C80.7454 11.1474 81.2966 11.3677 81.7376 11.4779C82.2889 11.588 82.8401 11.6982 83.2811 11.9185C83.7221 12.0286 84.0529 12.1388 84.4939 12.3591C84.6041 12.3591 84.8246 12.4692 84.9349 12.6895C85.0451 12.7997 85.0451 13.02 85.0451 13.1301C85.0451 13.3504 85.0451 13.4606 84.9349 13.6809C84.8246 13.7911 84.7144 13.9012 84.4939 14.0114C83.9426 14.3418 83.0606 14.3418 82.1786 14.1215L81.0761 13.7911L80.0839 13.3504C79.8634 13.2403 79.6429 13.1301 79.5326 13.02L78.5404 14.5621C79.0916 15.0027 79.6429 15.3332 80.3044 15.5535C81.1864 15.8839 82.1786 15.9941 83.0606 15.9941C84.3836 15.9941 85.4861 15.7738 86.1476 15.223C86.4784 15.0027 86.6989 14.6723 86.9194 14.2317C87.1399 13.9012 87.1399 13.4606 87.1399 13.02C87.1399 12.5794 87.0296 12.1388 86.6989 11.8083C86.5886 11.0373 86.1476 10.817 85.7066 10.5967ZM97.972 12.7997L97.3105 13.2403L96.5387 13.5707C96.208 13.6809 95.8772 13.6809 95.5465 13.6809C95.2157 13.6809 94.885 13.6809 94.6645 13.5707C94.3337 13.4606 94.1132 13.2403 93.8927 13.02C93.4517 12.5794 93.3415 11.8083 93.3415 10.817V7.95301H97.6412L98.3028 6.19058H93.3415V3.43678L91.5775 3.98754C91.4672 3.98754 91.357 4.09769 91.2467 4.20785C91.1365 4.318 91.1365 4.42815 91.1365 4.5383V6.30073H90.2545C90.1442 6.30073 90.034 6.30073 89.9237 6.41088L89.7032 6.63118L89.2622 7.95301H92.3492C92.3492 7.95301 91.1365 7.953 91.1365 8.83422V10.7068C91.1365 12.3591 91.4672 13.5707 92.1287 14.3418C92.7902 15.1129 93.8927 15.4433 95.2157 15.4433C95.6567 15.4433 95.9875 15.4433 96.4285 15.3332C96.8695 15.223 97.2002 15.1129 97.531 15.0027C97.8617 14.8926 98.1925 14.6723 98.5233 14.452C98.7438 14.3418 98.9643 14.1215 99.1848 13.9012L98.1925 12.4692C98.1925 12.4692 97.972 12.7997 97.972 12.7997ZM109.245 13.3504C109.245 13.2403 109.245 13.02 109.135 12.7997V11.9185C109.135 11.588 109.135 11.1474 109.245 10.7068C109.245 10.2662 109.355 9.71543 109.355 9.05452C109.355 8.61392 109.245 8.17331 109.135 7.7327C109.025 7.40225 108.804 7.07179 108.584 6.74134C108.253 6.41088 107.922 6.19058 107.481 6.08042C106.93 5.97027 106.379 5.86012 105.827 5.86012C105.056 5.86012 104.284 5.97027 103.512 6.08042C102.961 6.19058 102.41 6.41088 101.858 6.63118L102.41 8.28346C102.74 8.17331 103.181 7.95301 103.622 7.84286C104.174 7.62255 104.835 7.62255 105.386 7.62255C105.827 7.62255 106.268 7.7327 106.709 7.95301C107.04 8.17331 107.15 8.61392 107.15 9.05452V9.93574H107.04C106.709 9.93574 106.379 9.93574 106.048 9.82559H105.386C104.835 9.82559 104.284 9.82559 103.622 10.0459C103.181 10.156 102.74 10.2662 102.299 10.5967C101.969 10.817 101.638 11.1474 101.528 11.4779C101.307 11.9185 101.197 12.3591 101.197 12.7997C101.197 13.1301 101.197 13.4606 101.417 13.7911C101.528 14.1215 101.748 14.452 101.969 14.6723C102.52 15.1129 103.181 15.3332 104.174 15.3332C104.835 15.3332 105.386 15.223 105.938 14.8926C106.379 14.6723 106.709 14.3418 106.93 13.9012V13.7911H107.261L107.481 15.1129H109.576C109.686 15.1129 109.796 15.1129 109.907 15.0027L110.127 14.6723L110.348 13.3504H109.135C109.135 13.3504 109.245 13.3504 109.245 13.3504ZM107.04 12.5794C106.82 12.9098 106.599 13.1301 106.268 13.3504C105.827 13.5707 105.276 13.7911 104.835 13.6809C104.284 13.6809 103.953 13.5707 103.733 13.3504C103.622 13.2403 103.512 13.1301 103.402 12.9098C103.292 12.7997 103.292 12.5794 103.292 12.3591C103.292 12.1388 103.402 11.9185 103.512 11.6982C103.622 11.4779 103.843 11.3677 104.063 11.2576C104.284 11.1474 104.504 11.0373 104.725 11.0373C105.276 10.9271 105.827 10.9271 106.268 11.0373C106.489 11.0373 106.709 11.1474 106.82 11.1474H106.93V12.5794H107.04ZM117.982 10.3763L121.731 6.30073H119.195L116.108 10.0459H115.336V2.41788H112.69C112.58 2.41788 112.47 2.41788 112.36 2.52803L112.139 2.74833L111.588 4.18031H114.234C114.234 4.18031 113.131 4.18031 113.131 4.95137V15.3332H115.336V11.4779H116.218L119.526 15.3332H121.29C121.4 15.3332 121.51 15.3332 121.621 15.223L121.841 15.0027L122.392 13.5707H120.739L117.982 10.3763ZM51.5841 6.27319L51.3636 6.49349L49.3791 11.8909H49.0484L46.4023 6.16304H44.5281C44.4178 6.16304 44.3076 6.16304 44.1973 6.27319L43.9768 6.49349L43.5358 7.92547H46.1818C46.1818 7.92547 44.8588 7.92547 45.4101 9.02699L48.0561 15.1955H50.2611L53.7891 6.1355H51.8046C51.8046 6.16304 51.6944 6.27319 51.5841 6.27319ZM38.106 13.9012C37.7752 13.9012 37.3342 13.9012 37.0035 13.7911C36.6727 13.6809 36.342 13.5707 36.0112 13.3504C35.6805 13.1301 35.46 12.9098 35.3497 12.5794C35.1292 12.2489 35.019 11.9185 35.019 11.4779V11.3677H41.9648C42.075 10.817 42.075 10.2662 42.075 9.82559C42.075 9.16468 41.9648 8.50376 41.634 7.95301C41.4135 7.5124 41.0828 7.07179 40.6418 6.74134C40.2008 6.41088 39.7598 6.19058 39.3188 6.08042C38.2162 5.74997 37.0035 5.86012 35.901 6.19058C35.3497 6.41088 34.7985 6.63118 34.3575 7.07179C33.9165 7.5124 33.5857 7.95301 33.3652 8.61392C33.1447 9.27483 32.9242 10.0459 32.9242 10.7068C32.9242 11.3677 33.0345 12.0286 33.255 12.6895C33.4755 13.2403 33.8062 13.7911 34.2472 14.2317C34.6882 14.6723 35.2395 15.0027 35.7907 15.223C36.4522 15.4433 37.224 15.5535 37.8855 15.5535C38.3265 15.5535 40.5315 15.4433 42.075 14.3418L41.7443 12.7997C40.752 13.5707 39.429 13.9012 38.106 13.9012ZM35.1292 9.82559C35.1292 9.49513 35.2395 9.16468 35.46 8.94437C35.5702 8.72407 35.7907 8.39361 36.1215 8.28346C36.342 8.06316 36.6727 7.95301 37.0035 7.84286C37.3342 7.7327 37.665 7.7327 37.9957 7.7327C38.7675 7.7327 39.3188 7.953 39.7598 8.28346C40.2008 8.72407 40.311 9.27483 40.311 9.82559V9.93574H35.2395C35.2395 9.93574 35.1292 9.82559 35.1292 9.82559ZM60.4042 13.9012C60.0734 13.9012 59.6324 13.9012 59.3017 13.7911C58.9709 13.6809 58.6401 13.5707 58.3094 13.3504C57.9786 13.1301 57.7581 12.9098 57.6479 12.5794C57.4274 12.2489 57.3171 11.9185 57.3171 11.4779V11.3677H64.2629C64.3732 10.817 64.3732 10.2662 64.3732 9.82559C64.3732 9.16468 64.2629 8.50376 63.9322 7.95301C63.7117 7.5124 63.3809 7.07179 62.9399 6.74134C62.4989 6.41088 62.0579 6.19058 61.6169 6.08042C60.5144 5.74997 59.3017 5.86012 58.1991 6.19058C57.6479 6.41088 57.0966 6.63118 56.6556 7.07179C56.2146 7.5124 55.8839 7.95301 55.5531 8.61392C55.3326 9.27483 55.1121 10.0459 55.1121 10.7068C55.1121 11.3677 55.2224 12.0286 55.4429 12.6895C55.6634 13.2403 55.9941 13.7911 56.4351 14.2317C56.8761 14.6723 57.4274 15.0027 57.9786 15.223C58.6401 15.4433 59.4119 15.5535 60.0734 15.5535C60.5144 15.5535 62.7194 15.4433 64.2629 14.3418L63.9322 12.7997C63.0777 13.5707 61.7547 13.9012 60.4042 13.9012ZM57.4274 9.82559C57.4274 9.49513 57.5376 9.16468 57.7581 8.94437C57.8684 8.72407 58.0889 8.39361 58.4196 8.28346C58.6401 8.06316 58.9709 7.95301 59.3017 7.84286C59.6324 7.7327 59.9631 7.7327 60.2939 7.7327C61.0657 7.7327 61.6169 7.953 62.0579 8.28346C62.4989 8.72407 62.6092 9.27483 62.6092 9.82559V9.93574H57.5376C57.5376 9.93574 57.4274 9.82559 57.4274 9.82559ZM132.673 12.7997C131.571 13.4606 130.248 13.9012 128.925 13.9012C128.594 13.9012 128.153 13.9012 127.822 13.7911C127.492 13.6809 127.161 13.5707 126.83 13.3504C126.499 13.1301 126.279 12.9098 126.169 12.5794C125.948 12.2489 125.838 11.9185 125.838 11.4779V11.3677H132.784C132.894 10.817 132.894 10.2662 132.894 9.82559C132.894 9.16468 132.784 8.50376 132.453 7.95301C132.232 7.5124 131.902 7.07179 131.461 6.74134C131.02 6.41088 130.579 6.19058 130.138 6.08042C129.035 5.74997 127.822 5.86012 126.72 6.19058C126.169 6.41088 125.617 6.63118 125.176 7.07179C124.735 7.5124 124.405 7.95301 124.074 8.61392C123.853 9.27483 123.633 10.0459 123.633 10.7068C123.633 11.3677 123.743 12.0286 123.964 12.6895C124.184 13.2403 124.515 13.7911 124.956 14.2317C125.397 14.6723 125.948 15.0027 126.499 15.223C127.161 15.4433 127.933 15.5535 128.594 15.5535C129.035 15.5535 131.24 15.4433 132.784 14.3418C132.784 14.3418 132.673 12.7997 132.673 12.7997ZM125.921 9.82559C125.921 9.49513 126.031 9.16468 126.251 8.94437C126.361 8.72407 126.582 8.39361 126.913 8.28346C127.133 8.06316 127.464 7.95301 127.795 7.84286C128.126 7.7327 128.456 7.7327 128.787 7.7327C129.559 7.7327 130.11 7.953 130.551 8.28346C130.992 8.72407 131.102 9.27483 131.102 9.82559V9.93574H126.031C126.031 9.93574 125.921 9.82559 125.921 9.82559Z" fill="white"/>
</svg>
