<svg width="136" height="41" viewBox="0 0 136 41" fill="none" xmlns="http://www.w3.org/2000/svg">
<path d="M103.23 35.6166L106.846 34.4722V4.51758L103.23 5.66191V35.6166ZM61.4585 17.4194C63.7267 17.4194 65.8378 18.4291 67.1853 20.1119L68.6675 16.7014C66.7361 14.839 64.1534 13.9639 61.4585 13.9639C55.2151 13.9639 50.9256 18.8779 50.9706 24.3078C51.0155 30.1866 55.6418 34.9883 61.4585 34.9883C64.4005 34.9883 66.6463 34.1132 68.3306 32.8791V28.7057C66.5564 30.4783 63.9962 31.5329 61.7729 31.5329C58.4042 31.5329 54.6088 28.7954 54.6088 24.3078C54.6088 20.1568 57.8876 17.4194 61.4585 17.4194ZM85.5559 13.9864C79.3351 13.9864 75.6969 18.9003 75.6969 24.3303C75.6969 30.209 80.3681 35.0107 86.1848 35.0107C89.1268 35.0107 91.3726 34.1357 93.0569 32.9016V28.7281C91.2827 30.5007 88.7225 31.5553 86.4767 31.5553C83.4898 31.5553 80.2109 29.6929 79.5372 25.7887H95.415V24.3976C95.3926 18.6086 91.5747 13.9864 85.5559 13.9864ZM124.678 13.9864C118.861 13.9864 114.145 18.6984 114.145 24.5098C114.145 30.3212 118.861 35.0332 124.678 35.0332C130.494 35.0332 135.211 30.3212 135.211 24.5098C135.211 18.6984 130.472 13.9864 124.678 13.9864ZM85.6009 17.4194C88.4306 17.4194 91.4175 19.192 91.6645 22.6026H79.5372C79.7842 19.192 82.7711 17.4194 85.6009 17.4194ZM124.678 31.5553C120.77 31.5553 117.604 28.3915 117.604 24.4873C117.604 20.5831 120.77 17.4194 124.678 17.4194C128.586 17.4194 131.752 20.5831 131.752 24.4873C131.752 28.414 128.586 31.5553 124.678 31.5553Z" fill="white"/>
<path d="M24.6498 27.6507C31.0504 27.6507 36.2382 22.4675 36.2382 16.0727C36.2382 9.67791 31.0504 4.49475 24.6498 4.49475C18.2493 4.49475 13.0615 9.67791 13.0615 16.0727C13.0839 22.4675 18.2717 27.6507 24.6498 27.6507ZM24.6498 31.869C15.9361 31.869 8.86182 24.8011 8.86182 16.0952C8.86182 7.38924 15.9361 0.321289 24.6498 0.321289C33.3635 0.321289 40.4378 7.38924 40.4378 16.0952C40.4603 24.8011 33.386 31.869 24.6498 31.869Z" fill="#35D07F"/>
<path d="M16.2282 36.0652C22.6287 36.0652 27.8165 30.8821 27.8165 24.4873C27.8165 18.0925 22.6287 12.9093 16.2282 12.9093C9.82764 12.9093 4.63984 18.0925 4.63984 24.4873C4.63984 30.8821 9.8501 36.0652 16.2282 36.0652ZM16.2282 40.2836C7.51447 40.2836 0.440186 33.2156 0.440186 24.5097C0.440186 15.8038 7.51447 8.73584 16.2282 8.73584C24.9419 8.73584 32.0162 15.8038 32.0162 24.5097C32.0162 33.2156 24.9644 40.2836 16.2282 40.2836Z" fill="#FBCC5C"/>
<path d="M25.1664 31.8464C26.2668 30.5226 27.0528 28.9743 27.4571 27.3139C29.119 26.8876 30.6686 26.1247 31.9936 25.0253C31.9262 26.9549 31.522 28.8622 30.7584 30.6348C29.0067 31.3752 27.0977 31.8015 25.1664 31.8464ZM13.4208 13.2678C11.7589 13.6941 10.2093 14.457 8.88428 15.5565C8.95165 13.6268 9.3559 11.7196 10.1195 9.94698C11.8937 9.20653 13.8026 8.7802 15.734 8.71289C14.6335 10.0592 13.8475 11.6074 13.4208 13.2678Z" fill="#5EA33B"/>
</svg>
