<svg width="78" height="90" viewBox="0 0 78 90" fill="none" xmlns="http://www.w3.org/2000/svg">
<path d="M13.1257 46.7415C13.595 46.2728 14.2316 46.0098 14.8952 46.0098H76.1196C77.2349 46.0098 77.7932 47.3571 77.0042 48.1447L64.9064 60.2221C64.4371 60.6908 63.8005 60.9541 63.137 60.9541H1.91252C0.797204 60.9541 0.238966 59.6066 1.02791 58.8189L13.1257 46.7415Z" fill="url(#paint0_linear_102_271)"/>
<path d="M13.1257 1.62147C13.595 1.15287 14.2316 0.889648 14.8952 0.889648H76.1196C77.2349 0.889648 77.7932 2.23711 77.0042 3.02479L64.9064 15.1021C64.4371 15.5707 63.8005 15.8339 63.137 15.8339H1.91252C0.797204 15.8339 0.238966 14.4866 1.02791 13.6989L13.1257 1.62147Z" fill="url(#paint1_linear_102_271)"/>
<path d="M64.9064 24.0379C64.4371 23.5694 63.8005 23.3062 63.137 23.3062H1.91252C0.797204 23.3062 0.238966 24.6537 1.02791 25.4411L13.1257 37.5187C13.595 37.9872 14.2316 38.2505 14.8952 38.2505H76.1196C77.2349 38.2505 77.7932 36.9029 77.0042 36.1153L64.9064 24.0379Z" fill="url(#paint2_linear_102_271)"/>
<path d="M3.78002 84.8791H7.97048C8.5592 84.8791 9.03623 85.3625 9.03623 85.9588C9.03623 86.5549 8.5592 87.0382 7.97048 87.0382H2.91604C2.83715 87.0382 2.76096 87.0667 2.70097 87.1188L1.17478 88.4412C0.94118 88.6436 1.08257 89.0312 1.39005 89.0312H7.7174C7.71991 89.0312 7.72203 89.029 7.72203 89.0265C7.72203 89.0237 7.72435 89.0215 7.72724 89.0217C7.80671 89.0281 7.88735 89.0312 7.96856 89.0312C9.64694 89.0312 11.0076 87.6557 11.0076 85.9588C11.0076 84.3474 9.78062 83.0257 8.21971 82.8966C8.217 82.8964 8.21488 82.8941 8.21488 82.8914C8.21488 82.8885 8.21257 82.8862 8.20987 82.8862H3.69534C3.10682 82.8862 2.62959 82.403 2.62959 81.8068C2.62959 81.2105 3.10682 80.7273 3.69534 80.7273H8.74284C8.82597 80.7273 8.90603 80.6955 8.96698 80.6385L10.3842 79.316C10.6058 79.1092 10.4613 78.7344 10.1598 78.7344H3.78002C3.77983 78.7344 3.77944 78.7346 3.77944 78.7348C3.77944 78.7351 3.77925 78.7353 3.77887 78.7353C3.75186 78.7346 3.72466 78.7344 3.69727 78.7344C2.01889 78.7344 0.658203 80.1098 0.658203 81.8068C0.658203 83.5037 2.01889 84.8791 3.69727 84.8791C3.72466 84.8791 3.75186 84.879 3.77887 84.8782C3.77925 84.8782 3.77944 84.8784 3.77944 84.8788C3.77944 84.879 3.77983 84.8791 3.78002 84.8791Z" fill="white"/>
<path d="M28.1868 78.7344C28.0035 78.7344 27.855 78.8843 27.855 79.0695V88.696C27.855 88.8812 28.0035 89.0312 28.1868 89.0312H35.86C35.9516 89.0312 36.0392 88.9928 36.1018 88.9254L37.0623 87.8899C37.2609 87.6757 37.1107 87.3254 36.8204 87.3254H30.1207C29.9375 87.3254 29.789 87.1752 29.789 86.99V79.0695C29.789 78.8843 29.6404 78.7344 29.4574 78.7344H28.1868Z" fill="white"/>
<path fill-rule="evenodd" clip-rule="evenodd" d="M15.8969 78.7344C15.8964 78.7344 15.896 78.7348 15.896 78.7351C15.896 78.7357 15.8956 78.7361 15.8952 78.7361C14.9143 78.7789 14.1269 79.5721 14.0845 80.5602C14.0845 80.5608 14.0841 80.5612 14.0835 80.5612C14.0833 80.5612 14.0832 80.5614 14.083 80.5614C14.0828 80.5616 14.0828 80.5618 14.0828 80.5622V87.0375C14.0828 87.0378 14.0831 87.0382 14.0835 87.0382C14.0841 87.0382 14.0845 87.0386 14.0845 87.0392C14.0833 87.0664 14.0828 87.0937 14.0828 87.1213C14.0828 88.1481 14.8868 88.9855 15.8952 89.0294C15.8956 89.0294 15.896 89.0298 15.896 89.0304L15.8962 89.0308L15.8964 89.031C15.8966 89.0312 15.8968 89.0312 15.8969 89.0312H22.8595C22.8599 89.0312 22.8605 89.0308 22.8605 89.0304V89.0298L22.8609 89.0294H22.8612C23.8695 88.9855 24.6737 88.1481 24.6737 87.1213C24.6737 87.0937 24.6731 87.0664 24.672 87.0392C24.672 87.0386 24.6723 87.0382 24.6729 87.0382C24.6733 87.0382 24.6737 87.0378 24.6737 87.0375V80.5622C24.6737 80.5616 24.6733 80.5612 24.6727 80.5612C24.6723 80.5612 24.672 80.5608 24.672 80.5602C24.6295 79.5721 23.8419 78.7789 22.8612 78.7361C22.8609 78.7361 22.8605 78.7357 22.8605 78.7351C22.8605 78.7348 22.8599 78.7344 22.8595 78.7344H15.8969ZM17.1947 80.5612L17.1944 80.5614L17.1942 80.5618C17.1942 80.562 17.194 80.5623 17.1936 80.5623C16.5808 80.5891 16.0885 81.0883 16.0621 81.7098C16.0621 81.71 16.0617 81.7104 16.0615 81.7104C16.0611 81.7104 16.0609 81.7106 16.0609 81.711V85.7842C16.0609 85.7844 16.0611 85.7846 16.0615 85.7846C16.0617 85.7846 16.0619 85.7849 16.0619 85.7851C16.0613 85.8023 16.0609 85.8196 16.0609 85.8368C16.0609 86.4828 16.5634 87.0095 17.1936 87.0371C17.194 87.0371 17.1942 87.0374 17.1942 87.0376L17.1944 87.038L17.1946 87.0382H17.1947H21.5617H21.5619L21.5621 87.038L21.5623 87.0376C21.5623 87.0374 21.5625 87.0371 21.5627 87.0371C22.1931 87.0095 22.6955 86.4828 22.6955 85.8368C22.6955 85.8196 22.6952 85.8023 22.6944 85.7851L22.6946 85.7849L22.695 85.7846C22.6954 85.7846 22.6955 85.7844 22.6955 85.7842V81.711C22.6955 81.7106 22.6954 81.7104 22.695 81.7104C22.6948 81.7104 22.6944 81.71 22.6944 81.7098C22.668 81.0883 22.1757 80.5891 21.5627 80.5623C21.5625 80.5623 21.5623 80.562 21.5623 80.5618L21.5621 80.5614L21.5619 80.5612H21.5617H17.1947Z" fill="white"/>
<path fill-rule="evenodd" clip-rule="evenodd" d="M48.22 88.696C48.22 88.8812 48.3674 89.0312 48.5491 89.0312H49.8504C50.0321 89.0312 50.1795 88.8812 50.1795 88.696V80.7281C50.1795 80.7277 50.1791 80.7273 50.1785 80.7273L50.1781 80.7271L50.1779 80.7269C50.1777 80.7269 50.1777 80.7266 50.1777 80.7264C50.1789 80.6992 50.1795 80.6718 50.1795 80.6443C50.1795 79.6174 49.383 78.7801 48.3842 78.7361C48.3838 78.7361 48.3834 78.7357 48.3834 78.7351C48.3834 78.7348 48.383 78.7344 48.3825 78.7344H41.6982C41.6977 78.7344 41.6973 78.7348 41.6973 78.7351C41.6973 78.7357 41.6969 78.7361 41.6965 78.7361C41.6697 78.735 41.6427 78.7344 41.6157 78.7344C40.5787 78.7344 39.738 79.5895 39.738 80.6443C39.738 80.6718 39.7386 80.6992 39.7398 80.7264C39.7398 80.7267 39.7394 80.7273 39.7388 80.7273C39.7384 80.7273 39.738 80.7277 39.738 80.7281V88.696C39.738 88.8812 39.8852 89.0312 40.0669 89.0312H41.3684C41.5501 89.0312 41.6973 88.8812 41.6973 88.696V85.3806C41.6973 85.1954 41.8446 85.0453 42.0264 85.0453H47.8911C48.0729 85.0453 48.22 85.1954 48.22 85.3806V88.696ZM41.6973 83.2154V81.5576C41.6973 80.9156 42.209 80.3951 42.8404 80.3951H47.0771C47.7085 80.3951 48.22 80.9156 48.22 81.5576V83.2154C48.22 83.4006 48.0729 83.5505 47.8911 83.5505H42.0264C41.8446 83.5505 41.6973 83.4006 41.6973 83.2154Z" fill="white"/>
<path fill-rule="evenodd" clip-rule="evenodd" d="M75.6901 89.0312C75.5067 89.0312 75.358 88.8812 75.358 88.696V85.3806C75.358 85.1954 75.2092 85.0453 75.0258 85.0453H69.0962C68.9128 85.0453 68.764 85.1954 68.764 85.3806V88.696C68.764 88.8812 68.6155 89.0312 68.4321 89.0312H67.1181C66.9346 89.0312 66.7859 88.8812 66.7859 88.696V80.7281V80.7279L66.7861 80.7275C66.7863 80.7273 66.7865 80.7273 66.7869 80.7273C66.7872 80.7273 66.7876 80.7267 66.7876 80.7264C66.7865 80.6992 66.7859 80.6718 66.7859 80.6443C66.7859 79.5895 67.6346 78.7344 68.6817 78.7344C68.7091 78.7344 68.7363 78.735 68.7633 78.7361C68.7636 78.7361 68.764 78.7357 68.764 78.7351C68.764 78.7348 68.7644 78.7344 68.765 78.7344H75.5219C75.5225 78.7344 75.5229 78.7348 75.5229 78.7351C75.5229 78.7357 75.5233 78.7361 75.5237 78.7361C76.5321 78.7801 77.3361 79.6174 77.3361 80.6443C77.3361 80.6718 77.3355 80.6992 77.3344 80.7264C77.3344 80.7267 77.3348 80.7273 77.3353 80.7273C77.3355 80.7273 77.3357 80.7273 77.3359 80.7275C77.3361 80.7277 77.3361 80.7279 77.3361 80.7281V88.696C77.3361 88.8812 77.1876 89.0312 77.0041 89.0312H75.6901ZM68.764 81.5576V83.2154C68.764 83.4006 68.9128 83.5505 69.0962 83.5505H75.0258C75.2092 83.5505 75.358 83.4006 75.358 83.2154V81.5576C75.358 80.9156 74.8414 80.3951 74.2041 80.3951H69.9181C69.2808 80.3951 68.764 80.9156 68.764 81.5576Z" fill="white"/>
<path d="M55.0777 78.7344C55.1741 78.7344 55.2656 78.7773 55.3281 78.8519L61.1645 85.8466C61.363 86.0837 61.7438 85.9407 61.7438 85.629V79.0695C61.7438 78.8843 61.8909 78.7344 62.0727 78.7344H63.3741C63.5558 78.7344 63.703 78.8843 63.703 79.0695V88.696C63.703 88.8812 63.5558 89.0312 63.3741 89.0312H61.7561C61.7492 89.0312 61.7438 89.0256 61.7438 89.0186C61.7438 89.0157 61.7426 89.0127 61.7407 89.0105L55.8064 82.0648C55.6064 81.8314 55.2295 81.9756 55.2295 82.2853V88.696C55.2295 88.8812 55.0823 89.0312 54.9006 89.0312H53.5908C53.4091 89.0312 53.262 88.8812 53.262 88.696V79.0695C53.262 78.8843 53.4091 78.7344 53.5908 78.7344H55.0777Z" fill="white"/>
<defs>
<linearGradient id="paint0_linear_102_271" x1="52.5225" y1="-15.5867" x2="10.2095" y2="65.5323" gradientUnits="userSpaceOnUse">
<stop stop-color="#00FFA3"/>
<stop offset="1" stop-color="#DC1FFF"/>
</linearGradient>
<linearGradient id="paint1_linear_102_271" x1="52.5225" y1="-15.5864" x2="10.2095" y2="65.5326" gradientUnits="userSpaceOnUse">
<stop stop-color="#00FFA3"/>
<stop offset="1" stop-color="#DC1FFF"/>
</linearGradient>
<linearGradient id="paint2_linear_102_271" x1="52.5225" y1="-15.5864" x2="10.2095" y2="65.5325" gradientUnits="userSpaceOnUse">
<stop stop-color="#00FFA3"/>
<stop offset="1" stop-color="#DC1FFF"/>
</linearGradient>
</defs>
</svg>
