<svg width="688" height="519" viewBox="0 0 688 519" fill="none" xmlns="http://www.w3.org/2000/svg">
<path opacity="0.1" fill-rule="evenodd" clip-rule="evenodd" d="M585 103V171.82C585 209.83 554.19 240.64 516.18 240.64C478.17 240.64 447.36 209.83 447.36 171.82C447.36 133.81 478.17 103 516.18 103H585ZM688 171.82C688 266.72 611.07 343.64 516.18 343.64C421.28 343.64 344.36 266.71 344.36 171.82C344.36 76.93 421.28 0 516.18 0H688V171.82Z" fill="white"/>
<path opacity="0.1" fill-rule="evenodd" clip-rule="evenodd" d="M103.71 103V171.82C103.71 209.83 134.52 240.64 172.53 240.64C210.54 240.64 241.35 209.83 241.35 171.82C241.35 133.81 210.54 103 172.53 103H103.71ZM0.709961 171.82C0.709961 266.72 77.64 343.64 172.53 343.64C267.42 343.64 344.35 266.71 344.35 171.82C344.36 76.93 267.43 0 172.53 0H0.709961V171.82Z" fill="white"/>
<path opacity="0.1" fill-rule="evenodd" clip-rule="evenodd" d="M447.45 519C447.39 517.83 447.36 516.65 447.36 515.47V446.65H516.18C554.19 446.65 585 477.46 585 515.47C585 516.65 584.97 517.83 584.91 519H687.95C687.97 517.83 687.99 516.65 687.99 515.47C687.99 420.58 611.06 343.65 516.17 343.65H344.36V515.47C344.36 516.65 344.38 517.83 344.4 519H447.45Z" fill="white"/>
</svg>
