<svg width="115" height="20" viewBox="0 0 115 20" fill="none" xmlns="http://www.w3.org/2000/svg">
<g clip-path="url(#clip0_267_407)">
<path d="M48.3897 20C47.0056 20 45.5616 19.692 44.4136 18.664C43.2935 17.668 42.5175 16.224 42.2255 14.604C41.6735 11.524 41.6895 8.11199 42.2655 5.23199C42.3655 4.72799 42.5255 4.06799 42.8575 3.41599C43.7335 1.68399 45.3296 0.503993 47.1256 0.247993C49.1177 -0.0320068 51.3538 0.483993 52.5538 0.759993L52.8699 0.831993C56.566 1.64799 60.3221 1.54399 64.0302 0.523993L64.1462 0.491993C67.5744 -0.464007 70.0985 -0.040007 71.6545 1.77199C72.6145 2.88399 73.2386 4.63999 73.4026 5.47999C74.1906 9.41999 73.7866 12.252 73.4626 14.536C73.2506 16.04 72.5785 17.396 71.5705 18.34C68.9624 20.804 65.0783 19.816 63.2142 19.348C62.9702 19.284 62.7582 19.228 62.5862 19.196C59.3221 18.544 55.978 18.576 52.6458 19.308C52.5178 19.336 52.3538 19.376 52.1698 19.424C51.2698 19.648 49.8617 20 48.3897 20ZM48.3737 4.41199C48.1457 4.41199 47.9257 4.42399 47.7177 4.45199C47.2897 4.51199 46.8816 4.84399 46.6336 5.33999C46.5336 5.53999 46.4616 5.85599 46.4176 6.07999C45.9456 8.41999 45.9376 11.336 46.3896 13.868C46.5096 14.548 46.8136 15.148 47.2257 15.512C47.9217 16.132 50.3458 15.52 51.1418 15.324C51.3778 15.264 51.5818 15.212 51.7458 15.176C55.6499 14.328 59.5781 14.28 63.4142 15.052C63.6422 15.1 63.9262 15.168 64.2543 15.252C65.4783 15.56 67.7464 16.14 68.6664 15.272C68.9744 14.98 69.1944 14.5 69.2704 13.948C69.5664 11.888 69.8984 9.55199 69.2504 6.31999C69.1784 5.94799 68.7864 4.93999 68.4424 4.54399C68.2664 4.33999 67.6064 3.93599 65.2903 4.59199L65.1463 4.62799C60.7661 5.83199 56.33 5.95199 51.9538 4.98799L51.6018 4.90399C50.8338 4.71599 49.4977 4.41199 48.3737 4.41199Z" fill="#80EB84"/>
<path d="M8.42429 1.57599C3.77213 1.57599 0 5.34799 0 9.99999C0 14.652 3.77213 18.424 8.42429 18.424C13.0765 18.424 16.8486 14.652 16.8486 9.99999C16.8526 5.34799 13.0805 1.57599 8.42429 1.57599ZM8.42429 14.164C6.12421 14.164 4.26015 12.3 4.26015 9.99999C4.26015 7.69999 6.12421 5.83599 8.42429 5.83599C10.7244 5.83599 12.5884 7.69999 12.5884 9.99999C12.5884 12.3 10.7244 14.164 8.42429 14.164Z" fill="#80EB84"/>
<path d="M106.572 1.57599C101.92 1.57599 98.1474 5.34799 98.1474 9.99999C98.1474 14.652 101.92 18.424 106.572 18.424C111.224 18.424 114.996 14.652 114.996 9.99999C115 5.34799 111.228 1.57599 106.572 1.57599ZM106.572 14.164C104.272 14.164 102.408 12.3 102.408 9.99999C102.408 7.69999 104.272 5.83599 106.572 5.83599C108.872 5.83599 110.736 7.69999 110.736 9.99999C110.736 12.3 108.872 14.164 106.572 14.164Z" fill="#80EB84"/>
<path d="M94.4473 3.60799C94.2553 2.30799 93.1192 1.31599 91.7632 1.31599C90.7032 1.31599 89.7871 1.92799 89.3471 2.81999C89.3231 2.85599 89.2991 2.88799 89.2751 2.92799L86.335 8.01599L83.3949 2.92799C83.3709 2.89199 83.3469 2.85599 83.3229 2.81999C82.8829 1.93199 81.9669 1.31599 80.9068 1.31599C79.5508 1.31599 78.4187 2.30799 78.2227 3.60799C78.2147 3.66399 78.2107 3.72399 78.2067 3.79199V18.2H82.5109V10.008L84.2869 13.088C84.3189 13.144 84.3629 13.192 84.3989 13.244C84.799 13.892 85.511 14.324 86.327 14.324C87.143 14.324 87.8551 13.892 88.2551 13.244C88.2911 13.192 88.3351 13.144 88.3671 13.088L90.1431 10.008V18.2H94.4473V3.79199C94.4633 3.73599 94.4553 3.65599 94.4473 3.60799Z" fill="#80EB84"/>
<path d="M37.4533 3.608C37.2613 2.308 36.1253 1.316 34.7692 1.316C33.7092 1.316 32.7931 1.928 32.3531 2.82C32.3291 2.856 32.3051 2.888 32.2811 2.928L29.341 8.016L26.4049 2.924C26.3809 2.888 26.3569 2.852 26.3329 2.816C25.8929 1.928 24.9769 1.312 23.9168 1.312C22.5608 1.312 21.4287 2.304 21.2327 3.604C21.2247 3.66 21.2207 3.72 21.2167 3.788V18.2H25.5209V10.008L27.2969 13.088C27.3289 13.144 27.3729 13.192 27.4089 13.244C27.809 13.892 28.521 14.324 29.337 14.324C30.153 14.324 30.8651 13.892 31.2651 13.244C31.3011 13.192 31.3451 13.144 31.3771 13.088L33.1531 10.008V18.2H37.4573V3.792C37.4653 3.736 37.4613 3.656 37.4533 3.608Z" fill="#80EB84"/>
</g>
<defs>
<clipPath id="clip0_267_407">
<rect width="115" height="20" fill="white"/>
</clipPath>
</defs>
</svg>
